<?xml version="1.0" encoding="utf-8"?>
<!-- Generator: Adobe Illustrator 19.0.0, SVG Export Plug-In . SVG Version: 6.00 Build 0)  -->
<svg version="1.0" id="Layer_1" xmlns="http://www.w3.org/2000/svg" xmlns:xlink="http://www.w3.org/1999/xlink" x="0px" y="0px"
	 viewBox="0 0 749.3 177.3" style="enable-background:new 0 0 749.3 177.3;" xml:space="preserve">
<style type="text/css">
	.st0{fill:#FFFFFF;}
	.st1{fill:#0096A7;}
</style>
<g id="XMLID_55_">
	<path id="XMLID_56_" class="st0" d="M46.5,167.7c-1-1.1-1.6-2.7-1.6-4.8v-10.1h0.9v10.3c0,3.5,1.8,5.3,5.3,5.3c1.7,0,3-0.4,3.9-1.3
		c0.9-0.9,1.3-2.2,1.3-3.9v-10.3h1v10.1c0,2.1-0.5,3.7-1.6,4.8c-1,1.1-2.6,1.6-4.6,1.6C49.1,169.3,47.6,168.8,46.5,167.7z"/>
	<path id="XMLID_58_" class="st0" d="M73.2,152.8h0.9v16.3h-0.8l-10.8-14.7v14.7h-0.9v-16.3h0.8l10.8,14.7V152.8z"/>
	<path id="XMLID_63_" class="st0" d="M94.9,152.8h2.8v16.3h-2.2l-8.8-11.5v11.5h-2.8v-16.3h2.2l8.8,11.4V152.8z"/>
	<path id="XMLID_65_" class="st0" d="M102.8,167.6c-1.2-1.2-1.7-2.8-1.7-5.1v-9.7h2.9v9.9c0,1.4,0.3,2.5,1,3.2s1.6,1.1,2.9,1.1
		c1.3,0,2.2-0.4,2.9-1.1s1-1.8,1-3.2v-9.9h2.9v9.7c0,2.2-0.6,3.9-1.7,5.1c-1.2,1.2-2.9,1.7-5.1,1.7
		C105.7,169.3,104,168.8,102.8,167.6z"/>
	<path id="XMLID_67_" class="st0" d="M118.2,169.1v-16.3h10.9v2.3h-8v4.5h7.6v2.3h-7.6v4.8h8v2.3H118.2z"/>
	<path id="XMLID_69_" class="st0" d="M143.8,152.8h3l-7.3,16.3h-2.4l-7.3-16.3h3.1l5.4,12.6L143.8,152.8z"/>
	<path id="XMLID_71_" class="st0" d="M151.1,168.3c-1.2-0.7-2.1-1.7-2.7-2.9c-0.6-1.3-1-2.8-1-4.5c0-1.7,0.3-3.2,0.9-4.4
		c0.6-1.3,1.5-2.2,2.7-2.9c1.2-0.7,2.6-1,4.1-1c1.6,0,3,0.3,4.1,1c1.2,0.7,2.1,1.6,2.7,2.9c0.6,1.3,0.9,2.7,0.9,4.4
		c0,1.7-0.3,3.2-0.9,4.5c-0.6,1.3-1.5,2.2-2.7,2.9c-1.2,0.7-2.5,1-4.1,1C153.6,169.3,152.2,169,151.1,168.3z M158.7,165.4
		c0.8-1,1.3-2.5,1.3-4.5c0-1.9-0.4-3.4-1.3-4.4c-0.8-1-2-1.5-3.5-1.5s-2.7,0.5-3.5,1.5c-0.8,1-1.3,2.5-1.3,4.5
		c0,1.9,0.4,3.4,1.3,4.5s2,1.6,3.5,1.6S157.9,166.5,158.7,165.4z"/>
	<path id="XMLID_74_" class="st0" d="M172.2,169.1v-16.3h9.8v0.9h-8.9v6.7h8.4v0.9h-8.4v6.9h8.9v0.9H172.2z"/>
	<path id="XMLID_76_" class="st0" d="M186.8,168.8c-1-0.4-1.8-0.9-2.6-1.7l0.5-0.8c0.8,0.8,1.6,1.3,2.5,1.6s1.8,0.5,3,0.5
		c1.5,0,2.6-0.3,3.4-0.9c0.8-0.6,1.2-1.5,1.2-2.6c0-0.6-0.2-1.2-0.6-1.6c-0.4-0.4-0.9-0.7-1.5-0.9c-0.6-0.2-1.4-0.4-2.4-0.7
		c-1.3-0.3-2.3-0.6-3-0.8c-0.7-0.3-1.4-0.7-1.9-1.3s-0.8-1.4-0.8-2.4c0-0.9,0.2-1.7,0.7-2.4s1.1-1.2,2-1.6s1.8-0.6,3-0.6
		c2.3,0,4.1,0.7,5.5,2.2l-0.5,0.8c-0.8-0.7-1.6-1.2-2.4-1.6c-0.8-0.3-1.7-0.5-2.6-0.5c-1.5,0-2.6,0.3-3.4,1
		c-0.8,0.6-1.2,1.5-1.2,2.7c0,1,0.4,1.7,1.1,2.2c0.7,0.5,1.7,0.9,3,1.2l1,0.3c1.1,0.3,2,0.5,2.7,0.8c0.7,0.3,1.3,0.6,1.8,1.2
		s0.7,1.3,0.7,2.2c0,0.9-0.2,1.6-0.7,2.3c-0.5,0.7-1.1,1.2-2,1.6c-0.8,0.4-1.8,0.6-2.9,0.6C188.9,169.3,187.8,169.1,186.8,168.8z"/>
	<path id="XMLID_78_" class="st0" d="M199.2,152.8h6c1.6,0,2.9,0.4,3.8,1.2s1.4,1.9,1.4,3.2s-0.5,2.5-1.4,3.3s-2.2,1.2-3.8,1.2h-5.1
		v7.5h-0.9V152.8z M205.2,160.7c1.3,0,2.4-0.3,3.1-0.9c0.7-0.6,1.1-1.5,1.1-2.6c0-1.1-0.4-2-1.1-2.6c-0.7-0.6-1.7-0.9-3.1-0.9h-5.1
		v7H205.2z"/>
	<path id="XMLID_81_" class="st0" d="M224.6,169.1l-2-4.5h-9l-1.9,4.5h-1l7-16.3h0.9l7,16.3H224.6z M214,163.7h8.3l-4.1-9.6
		L214,163.7z"/>
	<path id="XMLID_84_" class="st0" d="M230.7,168.3c-1.1-0.7-1.9-1.6-2.5-2.9c-0.6-1.3-0.9-2.8-0.9-4.5c0-1.7,0.3-3.2,0.9-4.5
		c0.6-1.2,1.4-2.2,2.5-2.9c1.1-0.7,2.4-1,3.9-1c2.3,0,4.1,0.7,5.6,2.2l-0.5,0.8c-0.8-0.7-1.6-1.3-2.4-1.6s-1.7-0.5-2.7-0.5
		c-2,0-3.5,0.6-4.6,1.9c-1.1,1.3-1.6,3.1-1.6,5.5c0,2.4,0.5,4.2,1.6,5.5s2.6,2,4.6,2c1,0,1.9-0.2,2.7-0.5s1.6-0.8,2.4-1.6l0.5,0.8
		c-1.4,1.5-3.3,2.2-5.6,2.2C233.1,169.3,231.8,169,230.7,168.3z"/>
	<path id="XMLID_86_" class="st0" d="M243.7,169.1v-16.3h0.9v16.3H243.7z"/>
	<path id="XMLID_88_" class="st0" d="M251.8,168.3c-1.1-0.7-1.9-1.6-2.5-2.9s-0.9-2.7-0.9-4.5s0.3-3.2,0.9-4.5
		c0.6-1.3,1.4-2.2,2.5-2.9c1.1-0.7,2.3-1,3.8-1s2.7,0.3,3.8,1c1.1,0.7,1.9,1.6,2.5,2.9s0.9,2.7,0.9,4.4c0,1.7-0.3,3.2-0.9,4.5
		c-0.6,1.3-1.4,2.2-2.5,2.9c-1.1,0.7-2.4,1-3.8,1C254.1,169.3,252.9,169,251.8,168.3z M260.1,166.4c1.1-1.3,1.6-3.1,1.6-5.5
		c0-2.4-0.5-4.2-1.6-5.5s-2.6-1.9-4.5-1.9c-1.9,0-3.4,0.6-4.5,1.9c-1.1,1.3-1.6,3.1-1.6,5.5s0.5,4.2,1.6,5.5c1.1,1.3,2.6,2,4.5,2
		C257.5,168.4,259,167.7,260.1,166.4z"/>
	<path id="XMLID_91_" class="st0" d="M283,162.1c0.5,0.7,0.8,1.5,0.8,2.6c0,1.5-0.5,2.6-1.4,3.3c-0.9,0.8-2.2,1.1-3.9,1.1h-6.3
		v-16.3h6c1.7,0,2.9,0.4,3.8,1.1s1.3,1.8,1.3,3.2c0,0.9-0.2,1.6-0.7,2.3c-0.5,0.6-1.1,1.1-1.9,1.4C281.8,161,282.5,161.5,283,162.1z
		 M273.2,160.4h5c1.4,0,2.4-0.3,3.2-0.9c0.7-0.6,1.1-1.4,1.1-2.5c0-2.2-1.4-3.3-4.2-3.3h-5V160.4z M281.7,167.4c0.7-0.6,1-1.4,1-2.6
		c0-2.3-1.4-3.5-4.3-3.5h-5.3v6.9h5.3C280,168.2,281,168,281.7,167.4z"/>
	<path id="XMLID_95_" class="st0" d="M290.4,168.3c-1.1-0.7-1.9-1.6-2.5-2.9s-0.9-2.7-0.9-4.5s0.3-3.2,0.9-4.5
		c0.6-1.3,1.4-2.2,2.5-2.9c1.1-0.7,2.3-1,3.8-1s2.7,0.3,3.8,1c1.1,0.7,1.9,1.6,2.5,2.9s0.9,2.7,0.9,4.4c0,1.7-0.3,3.2-0.9,4.5
		c-0.6,1.3-1.4,2.2-2.5,2.9c-1.1,0.7-2.4,1-3.8,1C292.7,169.3,291.4,169,290.4,168.3z M298.6,166.4c1.1-1.3,1.6-3.1,1.6-5.5
		c0-2.4-0.5-4.2-1.6-5.5s-2.6-1.9-4.5-1.9c-1.9,0-3.4,0.6-4.5,1.9c-1.1,1.3-1.6,3.1-1.6,5.5s0.5,4.2,1.6,5.5c1.1,1.3,2.6,2,4.5,2
		C296.1,168.4,297.6,167.7,298.6,166.4z"/>
	<path id="XMLID_98_" class="st0" d="M306.6,167.7c-1-1.1-1.6-2.7-1.6-4.8v-10.1h0.9v10.3c0,3.5,1.8,5.3,5.3,5.3
		c1.7,0,3-0.4,3.9-1.3c0.9-0.9,1.3-2.2,1.3-3.9v-10.3h1v10.1c0,2.1-0.5,3.7-1.6,4.8c-1,1.1-2.6,1.6-4.6,1.6
		C309.1,169.3,307.6,168.8,306.6,167.7z"/>
	<path id="XMLID_100_" class="st0" d="M325.7,169.1v-15.5h-6v-0.9h13v0.9h-6v15.5H325.7z"/>
	<path id="XMLID_102_" class="st0" d="M335.2,169.1v-16.3h0.9v16.3H335.2z"/>
	<path id="XMLID_104_" class="st0" d="M352.1,172.7l-0.7,0.8c-0.6-0.4-1.2-1.1-1.8-1.8s-1.2-1.6-1.7-2.4c-0.4,0-0.8,0-1,0
		c-1.5,0-2.7-0.3-3.8-1c-1.1-0.7-1.9-1.6-2.5-2.9s-0.9-2.7-0.9-4.5s0.3-3.2,0.9-4.5c0.6-1.3,1.4-2.2,2.5-2.9c1.1-0.7,2.3-1,3.8-1
		s2.7,0.3,3.8,1c1.1,0.7,1.9,1.6,2.5,2.9s0.9,2.7,0.9,4.4c0,2.1-0.4,3.9-1.3,5.3c-0.9,1.4-2.1,2.3-3.7,2.8
		C349.9,170.4,350.9,171.6,352.1,172.7z M342.6,166.4c1.1,1.3,2.6,2,4.5,2c1.9,0,3.4-0.6,4.5-2c1.1-1.3,1.6-3.1,1.6-5.5
		c0-2.4-0.5-4.2-1.6-5.5s-2.6-1.9-4.5-1.9c-1.9,0-3.4,0.6-4.5,1.9c-1.1,1.3-1.6,3.1-1.6,5.5S341.5,165.1,342.6,166.4z"/>
	<path id="XMLID_107_" class="st0" d="M359.5,167.7c-1-1.1-1.6-2.7-1.6-4.8v-10.1h0.9v10.3c0,3.5,1.8,5.3,5.3,5.3
		c1.7,0,3-0.4,3.9-1.3c0.9-0.9,1.3-2.2,1.3-3.9v-10.3h1v10.1c0,2.1-0.5,3.7-1.6,4.8c-1,1.1-2.6,1.6-4.6,1.6
		C362.1,169.3,360.5,168.8,359.5,167.7z"/>
	<path id="XMLID_109_" class="st0" d="M374.6,169.1v-16.3h9.8v0.9h-8.9v6.7h8.4v0.9h-8.4v6.9h8.9v0.9H374.6z"/>
	<path id="XMLID_111_" class="st0" d="M406.8,152.8h2.3v16.3h-2.6V159l-4.3,10.1h-2l-4.4-10v10h-2.6v-16.3h2.3l5.6,12.8L406.8,152.8
		z"/>
	<path id="XMLID_113_" class="st0" d="M415.9,168.3c-1.2-0.7-2.1-1.7-2.7-2.9c-0.6-1.3-1-2.8-1-4.5c0-1.7,0.3-3.2,0.9-4.4
		c0.6-1.3,1.5-2.2,2.7-2.9c1.2-0.7,2.6-1,4.1-1c1.6,0,3,0.3,4.1,1c1.2,0.7,2.1,1.6,2.7,2.9c0.6,1.3,0.9,2.7,0.9,4.4
		c0,1.7-0.3,3.2-0.9,4.5c-0.6,1.3-1.5,2.2-2.7,2.9c-1.2,0.7-2.5,1-4.1,1C418.4,169.3,417,169,415.9,168.3z M423.5,165.4
		c0.8-1,1.3-2.5,1.3-4.5c0-1.9-0.4-3.4-1.3-4.4c-0.8-1-2-1.5-3.5-1.5s-2.7,0.5-3.5,1.5c-0.8,1-1.3,2.5-1.3,4.5
		c0,1.9,0.4,3.4,1.3,4.5c0.8,1,2,1.6,3.5,1.6S422.7,166.5,423.5,165.4z"/>
	<path id="XMLID_116_" class="st0" d="M430.8,152.8h6c2.7,0,4.8,0.7,6.2,2.1s2.2,3.4,2.2,6c0,2.6-0.7,4.6-2.2,6s-3.6,2.1-6.2,2.1h-6
		V152.8z M436.6,166.7c3.8,0,5.6-1.9,5.6-5.8c0-3.8-1.9-5.7-5.6-5.7h-2.9v11.5H436.6z"/>
	<path id="XMLID_119_" class="st0" d="M448.3,169.1v-16.3h10.9v2.3h-8v4.5h7.5v2.3h-7.5v4.8h8v2.3H448.3z"/>
	<path id="XMLID_121_" class="st0" d="M475.4,169.1h-3.1l-2.1-5.4c-0.2-0.5-0.5-0.9-0.8-1.1c-0.4-0.2-0.9-0.3-1.5-0.3h-3v6.8h-2.9
		v-16.3h7c1.9,0,3.3,0.4,4.2,1.2c1,0.8,1.4,2,1.4,3.5c0,1.1-0.3,2-0.9,2.8c-0.6,0.8-1.4,1.3-2.4,1.6c1,0.2,1.7,0.9,2.1,2
		L475.4,169.1z M468.5,160c1.1,0,1.9-0.2,2.5-0.6c0.5-0.4,0.8-1,0.8-1.9c0-0.8-0.3-1.4-0.8-1.8c-0.5-0.4-1.4-0.6-2.5-0.6h-3.7v5
		H468.5z"/>
	<path id="XMLID_124_" class="st0" d="M489,152.8h2.8v16.3h-2.2l-8.8-11.5v11.5H478v-16.3h2.2l8.8,11.4V152.8z"/>
	<path id="XMLID_126_" class="st0" d="M498.5,168.3c-1.2-0.7-2.1-1.7-2.7-2.9c-0.6-1.3-1-2.8-1-4.5c0-1.7,0.3-3.2,0.9-4.4
		c0.6-1.3,1.5-2.2,2.7-2.9c1.2-0.7,2.6-1,4.1-1c1.6,0,3,0.3,4.1,1c1.2,0.7,2.1,1.6,2.7,2.9c0.6,1.3,0.9,2.7,0.9,4.4
		c0,1.7-0.3,3.2-0.9,4.5c-0.6,1.3-1.5,2.2-2.7,2.9c-1.2,0.7-2.5,1-4.1,1C501,169.3,499.7,169,498.5,168.3z M506.1,165.4
		c0.8-1,1.3-2.5,1.3-4.5c0-1.9-0.4-3.4-1.3-4.4c-0.8-1-2-1.5-3.5-1.5s-2.7,0.5-3.5,1.5c-0.8,1-1.3,2.5-1.3,4.5
		c0,1.9,0.4,3.4,1.3,4.5c0.8,1,2,1.6,3.5,1.6S505.3,166.5,506.1,165.4z"/>
	<path id="XMLID_129_" class="st0" d="M532.7,152.8l-6.6,9.9v6.5h-3v-6.5l-6.6-9.9h3.4l4.7,7.4l4.8-7.4H532.7z"/>
	<path id="XMLID_131_" class="st0" d="M543,168.3c-1.2-0.7-2.1-1.7-2.8-2.9c-0.6-1.3-1-2.7-1-4.4c0-1.7,0.3-3.2,1-4.4
		c0.6-1.3,1.6-2.2,2.8-2.9s2.6-1,4.2-1c1.1,0,2.1,0.2,3.1,0.5c1,0.3,1.8,0.8,2.4,1.4l-1,2.2c-0.7-0.6-1.5-1-2.2-1.3
		c-0.7-0.3-1.5-0.4-2.3-0.4c-1.6,0-2.8,0.5-3.7,1.5c-0.9,1-1.3,2.5-1.3,4.4c0,1.9,0.4,3.4,1.3,4.4c0.9,1,2.1,1.5,3.7,1.5
		c0.8,0,1.6-0.1,2.3-0.4c0.7-0.3,1.5-0.7,2.2-1.3l1,2.2c-0.6,0.6-1.5,1.1-2.4,1.4c-1,0.3-2,0.5-3.1,0.5
		C545.7,169.3,544.3,169,543,168.3z"/>
	<path id="XMLID_133_" class="st0" d="M558.4,168.3c-1.2-0.7-2.1-1.7-2.7-2.9c-0.6-1.3-1-2.8-1-4.5c0-1.7,0.3-3.2,0.9-4.4
		c0.6-1.3,1.5-2.2,2.7-2.9c1.2-0.7,2.6-1,4.1-1c1.6,0,3,0.3,4.1,1c1.2,0.7,2.1,1.6,2.7,2.9c0.6,1.3,0.9,2.7,0.9,4.4
		c0,1.7-0.3,3.2-0.9,4.5c-0.6,1.3-1.5,2.2-2.7,2.9c-1.2,0.7-2.5,1-4.1,1C560.9,169.3,559.6,169,558.4,168.3z M566,165.4
		c0.8-1,1.3-2.5,1.3-4.5c0-1.9-0.4-3.4-1.3-4.4c-0.8-1-2-1.5-3.5-1.5s-2.7,0.5-3.5,1.5c-0.8,1-1.3,2.5-1.3,4.5
		c0,1.9,0.4,3.4,1.3,4.5c0.8,1,2,1.6,3.5,1.6S565.2,166.5,566,165.4z"/>
	<path id="XMLID_136_" class="st0" d="M584.3,152.8h2.8v16.3h-2.2l-8.8-11.5v11.5h-2.8v-16.3h2.2l8.8,11.4V152.8z"/>
	<path id="XMLID_138_" class="st0" d="M590.6,169.1v-16.3h10.7v2.4h-7.7v4.5h7.3v2.4h-7.3v7.1H590.6z"/>
	<path id="XMLID_140_" class="st0" d="M606.6,168.3c-1.2-0.7-2.1-1.7-2.7-2.9c-0.6-1.3-1-2.8-1-4.5c0-1.7,0.3-3.2,0.9-4.4
		c0.6-1.3,1.5-2.2,2.7-2.9c1.2-0.7,2.6-1,4.1-1c1.6,0,3,0.3,4.1,1c1.2,0.7,2.1,1.6,2.7,2.9c0.6,1.3,0.9,2.7,0.9,4.4
		c0,1.7-0.3,3.2-0.9,4.5c-0.6,1.3-1.5,2.2-2.7,2.9c-1.2,0.7-2.5,1-4.1,1C609.2,169.3,607.8,169,606.6,168.3z M614.3,165.4
		c0.8-1,1.3-2.5,1.3-4.5c0-1.9-0.4-3.4-1.3-4.4c-0.8-1-2-1.5-3.5-1.5s-2.7,0.5-3.5,1.5c-0.8,1-1.3,2.5-1.3,4.5
		c0,1.9,0.4,3.4,1.3,4.5c0.8,1,2,1.6,3.5,1.6S613.5,166.5,614.3,165.4z"/>
	<path id="XMLID_143_" class="st0" d="M635,169.1h-3.1l-2.1-5.4c-0.2-0.5-0.5-0.9-0.8-1.1c-0.4-0.2-0.9-0.3-1.5-0.3h-3v6.8h-2.9
		v-16.3h7c1.9,0,3.3,0.4,4.2,1.2c1,0.8,1.4,2,1.4,3.5c0,1.1-0.3,2-0.9,2.8c-0.6,0.8-1.4,1.3-2.4,1.6c1,0.2,1.7,0.9,2.1,2L635,169.1z
		 M628.1,160c1.1,0,1.9-0.2,2.5-0.6c0.5-0.4,0.8-1,0.8-1.9c0-0.8-0.3-1.4-0.8-1.8c-0.5-0.4-1.4-0.6-2.5-0.6h-3.7v5H628.1z"/>
	<path id="XMLID_146_" class="st0" d="M641,169.1v-13.9h-5.3v-2.4h13.7v2.4H644v13.9H641z"/>
	<path id="XMLID_148_" class="st0" d="M661.9,169.1l-1.6-3.8h-8l-1.7,3.8h-3l7.4-16.3h2.4l7.4,16.3H661.9z M653.2,163h6l-3-7
		L653.2,163z"/>
	<path id="XMLID_151_" class="st0" d="M678.8,162.1c0.5,0.7,0.8,1.5,0.8,2.5c0,1.4-0.5,2.5-1.5,3.3c-1,0.8-2.4,1.2-4.1,1.2h-7.4
		v-16.3h7.2c1.7,0,3,0.4,4,1.1c1,0.8,1.4,1.8,1.4,3.1c0,0.9-0.2,1.6-0.7,2.2s-1.1,1.1-1.9,1.4C677.6,161,678.3,161.4,678.8,162.1z
		 M669.5,159.7h3.8c2,0,3.1-0.8,3.1-2.3c0-0.8-0.3-1.3-0.8-1.7c-0.5-0.4-1.3-0.6-2.3-0.6h-3.8V159.7z M676,166.3
		c0.5-0.4,0.7-1,0.7-1.8c0-0.8-0.2-1.5-0.7-1.9c-0.5-0.4-1.3-0.6-2.4-0.6h-4.2v4.8h4.2C674.8,166.8,675.5,166.6,676,166.3z"/>
	<path id="XMLID_155_" class="st0" d="M682.4,169.1v-16.3h3v13.9h7.6v2.4H682.4z"/>
	<path id="XMLID_157_" class="st0" d="M695.3,169.1v-16.3h10.9v2.3h-8v4.5h7.5v2.3h-7.5v4.8h8v2.3H695.3z"/>
</g>
<g id="XMLID_462_">
	<rect id="XMLID_505_" x="637.4" y="8.2" class="st1" width="104.3" height="104.3"/>
	<g id="XMLID_464_">
		<path id="XMLID_503_" class="st0" d="M8.3,74.9v-7.7h8v7.7c0,2.6,2.3,4.4,5.5,4.4c3.2,0,5.5-1.8,5.5-4.4V39.1h8v35.7
			c0,7.1-5.7,12.2-13.5,12.2C14,87.1,8.3,81.9,8.3,74.9z"/>
		<path id="XMLID_500_" class="st0" d="M40.8,62.8c0-13.7,11.1-24.3,24.3-24.3c13.7,0,24.3,11.1,24.3,24.3
			c0,13.7-11.1,24.3-24.3,24.3C51.4,87.1,40.8,76,40.8,62.8z M81.4,62.8c0-8.9-7.2-16.3-16.3-16.3c-8.9,0-16.3,7.2-16.3,16.3
			c0,8.9,7.2,16.3,16.3,16.3C74,79.1,81.4,71.9,81.4,62.8z"/>
		<path id="XMLID_498_" class="st0" d="M92.2,76.2l7.3-3.3c1,3.8,3.8,6.2,7.7,6.2c4.1,0,7.1-2.9,7.1-6.6c0-4.4-3.3-5.5-9-7.7
			c-8.2-3.1-11.6-7.1-11.6-13.8c0-7.1,5.7-12.5,13-12.5c6.1,0,11,3.7,12.7,8.9l-7.2,3.3c-0.7-2.5-2.6-4.2-5.5-4.2
			c-3,0-5.1,2-5.1,4.6c0,3.1,1.4,4.5,6.5,6.5c5.4,2.1,14.1,4.6,14.1,15.1c0,8.2-6.6,14.6-15.1,14.6C100,87.1,94.1,82.5,92.2,76.2z"
			/>
		<path id="XMLID_495_" class="st0" d="M129.3,39.1h29.5v8h-21.5v11.7h19.1v8h-19.1v11.7h21.5v8h-29.5V39.1z M148,22.2l7,4.9l-8,7.2
			h-7L148,22.2z"/>
		<path id="XMLID_493_" class="st0" d="M179.5,39.1h8.9L201,69.3l12.7-30.1h8.9L201,88.3L179.5,39.1z"/>
		<path id="XMLID_490_" class="st0" d="M245.7,78.5h-18.6l-3.2,8h-9l21.5-49.2l21.5,49.2h-9L245.7,78.5z M243,71.7l-6.6-16.4
			l-6.6,16.4H243z"/>
		<path id="XMLID_488_" class="st0" d="M258.2,76.2l7.3-3.3c1,3.8,3.8,6.2,7.7,6.2c4.1,0,7.1-2.9,7.1-6.6c0-4.4-3.3-5.5-9-7.7
			c-8.2-3.1-11.6-7.1-11.6-13.8c0-7.1,5.7-12.5,13-12.5c6.1,0,11,3.7,12.7,8.9l-7.2,3.3c-0.7-2.5-2.6-4.2-5.5-4.2
			c-3,0-5.1,2-5.1,4.6c0,3.1,1.4,4.5,6.5,6.5c5.4,2.1,14.1,4.6,14.1,15.1c0,8.2-6.6,14.6-15.1,14.6C266,87.1,260.1,82.5,258.2,76.2z
			"/>
		<path id="XMLID_486_" class="st0" d="M292.3,62.7c0-13.6,11-24.2,24.6-24.2c4,0,7.5,0.9,11,2.8v9.8c-3.1-3-7-4.5-11.1-4.5
			c-9.1,0-16.4,7.1-16.4,16.2c0,9,7.1,16.2,16.3,16.2c4.2,0,8.1-1.5,11.2-4.5v9.8c-3.5,1.8-7,2.8-11,2.8
			C303.2,87.1,292.3,76.3,292.3,62.7z"/>
		<path id="XMLID_483_" class="st0" d="M332.2,62.8c0-13.7,11.1-24.3,24.3-24.3c13.7,0,24.3,11.1,24.3,24.3
			c0,13.7-11.1,24.3-24.3,24.3C342.9,87.1,332.2,76,332.2,62.8z M372.9,62.8c0-8.9-7.2-16.3-16.3-16.3c-8.9,0-16.3,7.2-16.3,16.3
			c0,8.9,7.2,16.3,16.3,16.3C365.5,79.1,372.9,71.9,372.9,62.8z"/>
		<path id="XMLID_481_" class="st0" d="M395.6,57.4v29.1h-8V37.3l28.5,31.1V39.1h8v49.3L395.6,57.4z"/>
		<path id="XMLID_479_" class="st0" d="M430.9,62.7c0-13.6,11-24.2,24.6-24.2c4,0,7.5,0.9,11,2.8v9.8c-3.1-3-7-4.5-11.1-4.5
			c-9.1,0-16.4,7.1-16.4,16.2c0,9,7.1,16.2,16.3,16.2c4.2,0,8.1-1.5,11.2-4.5v9.8c-3.5,1.8-7,2.8-11,2.8
			C441.8,87.1,430.9,76.3,430.9,62.7z"/>
		<path id="XMLID_477_" class="st0" d="M473.9,39.1h29.5v8h-21.5v11.7H501v8h-19.1v11.7h21.5v8h-29.5V39.1z"/>
		<path id="XMLID_475_" class="st0" d="M511.4,39.1h8v39.4h17.8v8h-25.8V39.1z"/>
		<path id="XMLID_472_" class="st0" d="M538.5,62.8c0-13.7,11.1-24.3,24.3-24.3c13.7,0,24.3,11.1,24.3,24.3
			c0,13.7-11.1,24.3-24.3,24.3C549.1,87.1,538.5,76,538.5,62.8z M579.1,62.8c0-8.9-7.2-16.3-16.3-16.3c-8.9,0-16.3,7.2-16.3,16.3
			c0,8.9,7.2,16.3,16.3,16.3C571.7,79.1,579.1,71.9,579.1,62.8z"/>
		<path id="XMLID_470_" class="st0" d="M589.9,76.2l7.3-3.3c1,3.8,3.8,6.2,7.7,6.2c4.1,0,7.1-2.9,7.1-6.6c0-4.4-3.3-5.5-9-7.7
			c-8.2-3.1-11.6-7.1-11.6-13.8c0-7.1,5.7-12.5,13-12.5c6.1,0,11,3.7,12.7,8.9l-7.2,3.3c-0.7-2.5-2.6-4.2-5.5-4.2
			c-3,0-5.1,2-5.1,4.6c0,3.1,1.4,4.5,6.5,6.5c5.4,2.1,14.1,4.6,14.1,15.1c0,8.2-6.6,14.6-15.1,14.6
			C597.7,87.1,591.8,82.5,589.9,76.2z"/>
		<path id="XMLID_468_" class="st0" d="M678.8,47h-21v-7.9h33.6l-23.4,47.4h-9.1L678.8,47z"/>
		<path id="XMLID_465_" class="st0" d="M706,70.1c-8.7-0.5-14.6-7.7-14.6-16.1c0-8.6,6.7-15.7,15.4-15.7c8.5,0,15.3,7.1,15.3,15.1
			c0,3.8-1.2,7.6-3.8,11.6l-13.5,21.5h-9.2L706,70.1z M714.4,54.2c0-4.3-3.3-7.9-7.6-7.9c-4.3,0-7.6,3.6-7.6,7.9
			c0,4.3,3.3,7.9,7.6,7.9C711.1,62.1,714.4,58.6,714.4,54.2z"/>
	</g>
	<g id="XMLID_463_">
		<path id="XMLID_13_" class="st0" d="M731.5,18.4v84h-84v-84H731.5 M733,16.9h-1.4h-84h-1.4v1.4v84v1.4h1.4h84h1.4v-1.4v-84V16.9
			L733,16.9z"/>
	</g>
</g>
</svg>
