<?xml version="1.0" encoding="utf-8"?>
<!-- Generator: Adobe Illustrator 19.0.0, SVG Export Plug-In . SVG Version: 6.00 Build 0)  -->
<svg version="1.0" id="Layer_1" xmlns="http://www.w3.org/2000/svg" xmlns:xlink="http://www.w3.org/1999/xlink" x="0px" y="0px"
	 viewBox="0 0 597.3 298.7" style="enable-background:new 0 0 597.3 298.7;" xml:space="preserve">
<style type="text/css">
	.st0{fill:#FFFFFF;}
</style>
<g id="XMLID_3_">
	<polygon id="XMLID_20_" class="st0" points="255,10.8 253.7,10.8 253.7,102.7 259.1,102.7 259.1,75.5 332.8,75.5 332.8,68.6 
		259.1,68.6 259.1,17.7 332.8,17.7 332.8,10.8 259.1,10.8 	"/>
	<rect id="XMLID_19_" x="268" y="95.9" class="st0" width="64.5" height="6.9"/>
	<rect id="XMLID_18_" x="341.4" y="10.8" class="st0" width="5.4" height="91.9"/>
	<rect id="XMLID_17_" x="268" y="39.7" class="st0" width="64.5" height="6.9"/>
	<polygon id="XMLID_16_" class="st0" points="120.6,161.9 120.6,233.2 111.2,233.2 75.5,179.1 75.5,233.2 65.9,233.2 65.9,161.9 
		75.4,161.9 110.9,215.9 110.9,161.9 	"/>
	<path id="XMLID_13_" class="st0" d="M170.1,161.9l30.1,71.3h-10.1l-8.7-20.5h-31.9l-8.6,20.5h-10.2l30.1-71.3H170.1z M153.5,203.4
		h23.9l-11.9-28.3L153.5,203.4z"/>
	<path id="XMLID_12_" class="st0" d="M271.8,161.9v40.3c0,5-0.7,9.6-2.1,13.6c-1.4,4-3.4,7.5-6.1,10.3c-2.6,2.9-5.8,5-9.5,6.6
		c-3.7,1.5-7.9,2.3-12.4,2.3c-9.7,0-17.2-2.8-22.4-8.5c-5.2-5.7-7.8-13.8-7.8-24.3v-40.3h9.7v16.3v23.3v0.7
		c0,15.6,6.9,23.4,20.6,23.4c3.2,0,5.9-0.5,8.2-1.4c2.3-0.9,4.2-2.1,5.7-3.5c1.5-1.4,2.7-3,3.6-4.8c0.9-1.8,1.5-3.5,2-5.2
		c0.4-1.7,0.7-3.3,0.9-4.8c0.1-1.5,0.2-2.7,0.2-3.7v-24v-16.3H271.8z"/>
	<polygon id="XMLID_11_" class="st0" points="336,161.9 336,171 314.8,171 314.8,233.2 305.2,233.2 305.2,171 284,171 284,161.9 	
		"/>
	<polygon id="XMLID_10_" class="st0" points="392,223.9 392,233.2 347.2,233.2 347.2,161.9 356.8,161.9 356.8,223.9 	"/>
	<path id="XMLID_7_" class="st0" d="M441.5,161.9l30.1,71.3h-10.1l-8.7-20.5H421l-8.6,20.5h-10.2l30.1-71.3H441.5z M424.9,203.4
		h23.9l-11.9-28.3L424.9,203.4z"/>
	<path id="XMLID_4_" class="st0" d="M527.4,205.6h7.4v10.2h-7.4v17.8h-10.5v-17.8h-27.2h-5.2v-10.2l32.4-44.3h0.1h7.9h2.6v1.8v1.1
		V205.6z M497.1,205.6h19.7v-27L497.1,205.6z"/>
</g>
<g id="XMLID_90_">
	<path id="XMLID_91_" class="st0" d="M13.5,286.5v-16.3h9.8v0.9h-8.9v6.7h8.4v0.9h-8.4v6.9h8.9v0.9H13.5z"/>
	<path id="XMLID_93_" class="st0" d="M26.8,286.5v-16.3h0.9v15.5h8.7v0.9H26.8z"/>
	<path id="XMLID_95_" class="st0" d="M44.3,286.5v-16.3h10.9v2.3h-8v4.5h7.6v2.3h-7.6v4.8h8v2.3H44.3z"/>
	<path id="XMLID_97_" class="st0" d="M59.8,286.2c-1.1-0.3-2-0.8-2.8-1.4l1-2.2c0.8,0.6,1.6,1,2.5,1.3c0.9,0.3,1.8,0.4,2.8,0.4
		c1.1,0,2-0.2,2.6-0.6s0.9-1,0.9-1.7c0-0.6-0.3-1.1-0.9-1.4s-1.5-0.6-2.8-0.9c-2.1-0.4-3.5-1-4.5-1.7s-1.4-1.7-1.4-3.1
		c0-1,0.3-1.8,0.8-2.6c0.5-0.8,1.3-1.3,2.2-1.8c1-0.4,2.1-0.6,3.3-0.6c1.1,0,2.2,0.2,3.3,0.5c1,0.3,1.9,0.8,2.5,1.4l-1,2.2
		c-1.5-1.2-3.1-1.7-4.8-1.7c-1.1,0-1.9,0.2-2.5,0.7c-0.6,0.4-0.9,1-0.9,1.8c0,0.6,0.3,1.1,0.8,1.5c0.5,0.3,1.5,0.7,2.8,0.9
		c1.4,0.3,2.5,0.7,3.3,1c0.9,0.4,1.5,0.9,2,1.4s0.7,1.3,0.7,2.2c0,1-0.3,1.8-0.8,2.6c-0.5,0.7-1.3,1.3-2.2,1.7
		c-1,0.4-2.1,0.6-3.5,0.6C62,286.7,60.8,286.5,59.8,286.2z"/>
	<path id="XMLID_99_" class="st0" d="M72.5,270.1h7.1c1.8,0,3.1,0.4,4.1,1.3c1,0.8,1.5,2,1.5,3.5s-0.5,2.6-1.5,3.5
		c-1,0.9-2.4,1.3-4.1,1.3h-4.1v6.8h-3V270.1z M79.3,277.4c1,0,1.8-0.2,2.3-0.6s0.8-1,0.8-1.8c0-0.8-0.3-1.4-0.8-1.8
		c-0.5-0.4-1.3-0.6-2.3-0.6h-3.8v4.9H79.3z"/>
	<path id="XMLID_102_" class="st0" d="M98.5,286.5l-1.6-3.8h-8l-1.7,3.8h-3l7.4-16.3h2.4l7.4,16.3H98.5z M89.9,280.3h6l-3-7
		L89.9,280.3z"/>
	<path id="XMLID_105_" class="st0" d="M106,285.6c-1.2-0.7-2.1-1.7-2.8-2.9c-0.6-1.3-1-2.7-1-4.4c0-1.7,0.3-3.2,1-4.4
		c0.6-1.3,1.6-2.2,2.8-2.9c1.2-0.7,2.6-1,4.2-1c1.1,0,2.1,0.2,3.1,0.5c1,0.3,1.8,0.8,2.4,1.4l-1,2.2c-0.7-0.6-1.5-1-2.2-1.3
		s-1.5-0.4-2.3-0.4c-1.6,0-2.8,0.5-3.7,1.5c-0.9,1-1.3,2.5-1.3,4.4c0,1.9,0.4,3.4,1.3,4.4c0.9,1,2.1,1.5,3.7,1.5
		c0.8,0,1.6-0.1,2.3-0.4s1.5-0.7,2.2-1.3l1,2.2c-0.6,0.6-1.4,1.1-2.4,1.4c-1,0.3-2,0.5-3.1,0.5C108.6,286.7,107.2,286.3,106,285.6z"
		/>
	<path id="XMLID_107_" class="st0" d="M118.5,286.5v-16.3h3v16.3H118.5z"/>
	<path id="XMLID_109_" class="st0" d="M128.1,285.7c-1.2-0.7-2.1-1.7-2.7-2.9c-0.6-1.3-1-2.8-1-4.5c0-1.7,0.3-3.2,0.9-4.4
		c0.6-1.3,1.5-2.2,2.7-2.9c1.2-0.7,2.6-1,4.1-1c1.6,0,3,0.3,4.1,1c1.2,0.7,2.1,1.6,2.7,2.9c0.6,1.3,0.9,2.7,0.9,4.4
		c0,1.7-0.3,3.2-0.9,4.5c-0.6,1.3-1.5,2.2-2.7,2.9c-1.2,0.7-2.5,1-4.1,1C130.7,286.7,129.3,286.3,128.1,285.7z M135.8,282.7
		c0.8-1,1.3-2.5,1.3-4.5c0-1.9-0.4-3.4-1.3-4.4c-0.8-1-2-1.5-3.5-1.5s-2.7,0.5-3.5,1.5c-0.8,1-1.3,2.5-1.3,4.5
		c0,1.9,0.4,3.4,1.3,4.5c0.8,1,2,1.6,3.5,1.6S134.9,283.8,135.8,282.7z"/>
	<path id="XMLID_112_" class="st0" d="M161.3,290l-0.7,0.8c-0.6-0.4-1.2-1.1-1.8-1.8s-1.2-1.6-1.7-2.4c-0.4,0-0.8,0-1,0
		c-1.5,0-2.7-0.3-3.8-1c-1.1-0.7-1.9-1.6-2.5-2.9s-0.9-2.7-0.9-4.5s0.3-3.2,0.9-4.5c0.6-1.3,1.4-2.2,2.5-2.9c1.1-0.7,2.3-1,3.8-1
		s2.7,0.3,3.8,1c1.1,0.7,1.9,1.6,2.5,2.9s0.9,2.7,0.9,4.4c0,2.1-0.4,3.9-1.3,5.3c-0.9,1.4-2.1,2.3-3.7,2.8
		C159.1,287.8,160.1,289,161.3,290z M151.7,283.7c1.1,1.3,2.6,2,4.5,2c1.9,0,3.4-0.6,4.5-2c1.1-1.3,1.6-3.1,1.6-5.5
		c0-2.4-0.5-4.2-1.6-5.5s-2.6-1.9-4.5-1.9c-1.9,0-3.4,0.6-4.5,1.9c-1.1,1.3-1.6,3.1-1.6,5.5S150.7,282.4,151.7,283.7z"/>
	<path id="XMLID_115_" class="st0" d="M168.6,285c-1-1.1-1.6-2.7-1.6-4.8v-10.1h0.9v10.3c0,3.5,1.8,5.3,5.3,5.3c1.7,0,3-0.4,3.9-1.3
		c0.9-0.9,1.3-2.2,1.3-3.9v-10.3h1v10.1c0,2.1-0.5,3.7-1.6,4.8c-1,1.1-2.6,1.6-4.6,1.6C171.2,286.7,169.7,286.1,168.6,285z"/>
	<path id="XMLID_117_" class="st0" d="M183.8,286.5v-16.3h9.8v0.9h-8.9v6.7h8.4v0.9h-8.4v6.9h8.9v0.9H183.8z"/>
	<path id="XMLID_119_" class="st0" d="M214.5,270.1h0.9v16.3h-0.8l-10.8-14.7v14.7h-0.9v-16.3h0.8l10.8,14.7V270.1z"/>
	<path id="XMLID_121_" class="st0" d="M219.8,286.5v-16.3h9.8v0.9h-8.9v6.7h8.4v0.9h-8.4v6.9h8.9v0.9H219.8z"/>
	<path id="XMLID_123_" class="st0" d="M235.8,285.7c-1.1-0.7-1.9-1.6-2.5-2.9c-0.6-1.3-0.9-2.8-0.9-4.5c0-1.7,0.3-3.2,0.9-4.5
		c0.6-1.2,1.4-2.2,2.5-2.9c1.1-0.7,2.4-1,3.9-1c2.3,0,4.1,0.7,5.6,2.2l-0.5,0.8c-0.8-0.7-1.6-1.3-2.4-1.6s-1.7-0.5-2.7-0.5
		c-2,0-3.5,0.6-4.6,1.9c-1.1,1.3-1.6,3.1-1.6,5.5c0,2.4,0.5,4.2,1.6,5.5s2.6,2,4.6,2c1,0,1.9-0.2,2.7-0.5s1.6-0.8,2.4-1.6l0.5,0.8
		c-1.4,1.5-3.3,2.2-5.6,2.2C238.1,286.7,236.8,286.3,235.8,285.7z"/>
	<path id="XMLID_125_" class="st0" d="M248.7,286.5v-16.3h9.8v0.9h-8.9v6.7h8.4v0.9h-8.4v6.9h8.9v0.9H248.7z"/>
	<path id="XMLID_127_" class="st0" d="M263.4,286.1c-1-0.4-1.8-0.9-2.6-1.7l0.5-0.8c0.8,0.8,1.6,1.3,2.5,1.6s1.8,0.5,3,0.5
		c1.5,0,2.6-0.3,3.4-0.9c0.8-0.6,1.2-1.5,1.2-2.6c0-0.6-0.2-1.2-0.6-1.6c-0.4-0.4-0.9-0.7-1.5-0.9c-0.6-0.2-1.4-0.4-2.4-0.7
		c-1.3-0.3-2.3-0.6-3-0.8c-0.7-0.3-1.4-0.7-1.9-1.3s-0.8-1.4-0.8-2.4c0-0.9,0.2-1.7,0.7-2.4s1.1-1.2,2-1.6s1.8-0.6,3-0.6
		c2.3,0,4.1,0.7,5.5,2.2l-0.5,0.8c-0.8-0.7-1.6-1.2-2.4-1.6c-0.8-0.3-1.7-0.5-2.6-0.5c-1.5,0-2.6,0.3-3.4,1
		c-0.8,0.6-1.2,1.5-1.2,2.7c0,1,0.4,1.7,1.1,2.2c0.7,0.5,1.7,0.9,3,1.2l1,0.3c1.1,0.3,2,0.5,2.7,0.8c0.7,0.3,1.3,0.6,1.8,1.2
		s0.7,1.3,0.7,2.2c0,0.9-0.2,1.6-0.7,2.3c-0.5,0.7-1.1,1.2-2,1.6c-0.8,0.4-1.8,0.6-2.9,0.6C265.5,286.7,264.4,286.5,263.4,286.1z"/>
	<path id="XMLID_129_" class="st0" d="M275.7,286.5v-16.3h0.9v16.3H275.7z"/>
	<path id="XMLID_131_" class="st0" d="M285.2,286.5V271h-6v-0.9h13v0.9h-6v15.5H285.2z"/>
	<path id="XMLID_133_" class="st0" d="M305.3,286.5l-2-4.5h-9l-1.9,4.5h-1l7-16.3h0.9l7,16.3H305.3z M294.7,281h8.3l-4.1-9.6
		L294.7,281z"/>
	<path id="XMLID_136_" class="st0" d="M310.8,286.1c-1-0.4-1.8-0.9-2.6-1.7l0.5-0.8c0.8,0.8,1.6,1.3,2.5,1.6s1.8,0.5,3,0.5
		c1.5,0,2.6-0.3,3.4-0.9c0.8-0.6,1.2-1.5,1.2-2.6c0-0.6-0.2-1.2-0.6-1.6c-0.4-0.4-0.9-0.7-1.5-0.9c-0.6-0.2-1.4-0.4-2.4-0.7
		c-1.3-0.3-2.3-0.6-3-0.8c-0.7-0.3-1.4-0.7-1.9-1.3c-0.6-0.6-0.8-1.4-0.8-2.4c0-0.9,0.2-1.7,0.7-2.4s1.1-1.2,2-1.6
		c0.8-0.4,1.8-0.6,3-0.6c2.3,0,4.1,0.7,5.5,2.2l-0.5,0.8c-0.8-0.7-1.6-1.2-2.4-1.6c-0.8-0.3-1.7-0.5-2.6-0.5c-1.5,0-2.6,0.3-3.4,1
		c-0.8,0.6-1.2,1.5-1.2,2.7c0,1,0.4,1.7,1.1,2.2c0.7,0.5,1.7,0.9,3,1.2l1,0.3c1.1,0.3,2,0.5,2.7,0.8c0.7,0.3,1.3,0.6,1.8,1.2
		c0.5,0.5,0.7,1.3,0.7,2.2c0,0.9-0.2,1.6-0.7,2.3c-0.5,0.7-1.1,1.2-2,1.6c-0.8,0.4-1.8,0.6-2.9,0.6
		C312.9,286.7,311.8,286.5,310.8,286.1z"/>
	<path id="XMLID_138_" class="st0" d="M328.9,286.5v-16.3h9.8v0.9h-8.9v6.7h8.4v0.9h-8.4v6.9h8.9v0.9H328.9z"/>
	<path id="XMLID_140_" class="st0" d="M353.8,270.1h0.9v16.3H354l-10.8-14.7v14.7h-0.9v-16.3h0.8l10.8,14.7V270.1z"/>
	<path id="XMLID_142_" class="st0" d="M366.4,285c-1-1.1-1.6-2.7-1.6-4.8v-10.1h0.9v10.3c0,3.5,1.8,5.3,5.3,5.3c1.7,0,3-0.4,3.9-1.3
		c0.9-0.9,1.3-2.2,1.3-3.9v-10.3h1v10.1c0,2.1-0.5,3.7-1.6,4.8c-1,1.1-2.6,1.6-4.6,1.6C369,286.7,367.4,286.1,366.4,285z"/>
	<path id="XMLID_144_" class="st0" d="M393.1,270.1h0.9v16.3h-0.8l-10.8-14.7v14.7h-0.9v-16.3h0.8l10.8,14.7V270.1z"/>
	<path id="XMLID_146_" class="st0" d="M403.7,286.5v-16.3h10.9v2.3h-8v4.5h7.5v2.3h-7.5v4.8h8v2.3H403.7z"/>
	<path id="XMLID_148_" class="st0" d="M428.4,270.1h2.8v16.3H429l-8.8-11.5v11.5h-2.8v-16.3h2.2l8.8,11.4V270.1z"/>
	<path id="XMLID_150_" class="st0" d="M438.5,286.5v-13.9h-5.3v-2.4h13.7v2.4h-5.3v13.9H438.5z"/>
	<path id="XMLID_152_" class="st0" d="M451.1,285.7c-1.2-0.7-2.1-1.7-2.7-2.9c-0.6-1.3-1-2.8-1-4.5c0-1.7,0.3-3.2,0.9-4.4
		c0.6-1.3,1.5-2.2,2.7-2.9c1.2-0.7,2.6-1,4.1-1c1.6,0,3,0.3,4.1,1c1.2,0.7,2.1,1.6,2.7,2.9c0.6,1.3,0.9,2.7,0.9,4.4
		c0,1.7-0.3,3.2-0.9,4.5c-0.6,1.3-1.5,2.2-2.7,2.9c-1.2,0.7-2.5,1-4.1,1C453.6,286.7,452.3,286.3,451.1,285.7z M458.7,282.7
		c0.8-1,1.3-2.5,1.3-4.5c0-1.9-0.4-3.4-1.3-4.4c-0.8-1-2-1.5-3.5-1.5s-2.7,0.5-3.5,1.5c-0.8,1-1.3,2.5-1.3,4.5
		c0,1.9,0.4,3.4,1.3,4.5c0.8,1,2,1.6,3.5,1.6S457.9,283.8,458.7,282.7z"/>
	<path id="XMLID_155_" class="st0" d="M479.4,286.5h-3.1l-2.1-5.4c-0.2-0.5-0.5-0.9-0.8-1.1c-0.4-0.2-0.9-0.3-1.5-0.3h-3v6.8H466
		v-16.3h7c1.9,0,3.3,0.4,4.2,1.2c1,0.8,1.4,2,1.4,3.5c0,1.1-0.3,2-0.9,2.8c-0.6,0.8-1.4,1.3-2.4,1.6c1,0.2,1.7,0.9,2.1,2
		L479.4,286.5z M472.6,277.4c1.1,0,1.9-0.2,2.5-0.6c0.5-0.4,0.8-1,0.8-1.9c0-0.8-0.3-1.4-0.8-1.8c-0.5-0.4-1.4-0.6-2.5-0.6h-3.7v5
		H472.6z"/>
	<path id="XMLID_158_" class="st0" d="M493.1,270.1h2.8v16.3h-2.2l-8.8-11.5v11.5h-2.8v-16.3h2.2l8.8,11.4V270.1z"/>
	<path id="XMLID_160_" class="st0" d="M502.6,285.7c-1.2-0.7-2.1-1.7-2.7-2.9c-0.6-1.3-1-2.8-1-4.5c0-1.7,0.3-3.2,0.9-4.4
		c0.6-1.3,1.5-2.2,2.7-2.9c1.2-0.7,2.6-1,4.1-1c1.6,0,3,0.3,4.1,1c1.2,0.7,2.1,1.6,2.7,2.9c0.6,1.3,0.9,2.7,0.9,4.4
		c0,1.7-0.3,3.2-0.9,4.5c-0.6,1.3-1.5,2.2-2.7,2.9c-1.2,0.7-2.5,1-4.1,1C505.1,286.7,503.7,286.3,502.6,285.7z M510.2,282.7
		c0.8-1,1.3-2.5,1.3-4.5c0-1.9-0.4-3.4-1.3-4.4c-0.8-1-2-1.5-3.5-1.5s-2.7,0.5-3.5,1.5c-0.8,1-1.3,2.5-1.3,4.5
		c0,1.9,0.4,3.4,1.3,4.5c0.8,1,2,1.6,3.5,1.6S509.4,283.8,510.2,282.7z"/>
	<path id="XMLID_163_" class="st0" d="M523.8,286.5v-16.3h3v16.3H523.8z"/>
	<path id="XMLID_165_" class="st0" d="M530.3,270.1h6c2.7,0,4.8,0.7,6.2,2.1s2.2,3.4,2.2,6c0,2.6-0.7,4.6-2.2,6s-3.6,2.1-6.2,2.1h-6
		V270.1z M536.1,284.1c3.8,0,5.6-1.9,5.6-5.8c0-3.8-1.9-5.7-5.6-5.7h-2.9v11.5H536.1z"/>
	<path id="XMLID_168_" class="st0" d="M547.7,286.5v-16.3h10.9v2.3h-8v4.5h7.5v2.3h-7.5v4.8h8v2.3H547.7z"/>
	<path id="XMLID_170_" class="st0" d="M573.6,286.5l-1.6-3.8h-8l-1.7,3.8h-3l7.4-16.3h2.4l7.4,16.3H573.6z M565,280.3h6l-3-7
		L565,280.3z"/>
	<path id="XMLID_173_" class="st0" d="M578.3,286.5v-16.3h3V284h7.6v2.4H578.3z"/>
</g>
</svg>
