<?xml version="1.0" encoding="utf-8"?>
<!-- Generator: Adobe Illustrator 19.0.0, SVG Export Plug-In . SVG Version: 6.00 Build 0)  -->
<svg version="1.0" id="Layer_1" xmlns="http://www.w3.org/2000/svg" xmlns:xlink="http://www.w3.org/1999/xlink" x="0px" y="0px"
	 viewBox="0 0 60 60" style="enable-background:new 0 0 60 60;" xml:space="preserve">
<style type="text/css">
	.st0{fill:#9B9B9B;}
</style>
<g id="XMLID_1480_">
	<g id="XMLID_1481_">
		<path id="XMLID_1482_" class="st0" d="M50.4,30.5H9.6c-0.5,0-0.9,0.4-0.9,0.9s0.4,0.9,0.9,0.9h2.2v13.6h-1.2v0.7h0v3.6
			c0,0.5,0.4,0.9,0.9,0.9h36.9c0.5,0,0.9-0.4,0.9-0.9v-2.6h0v-1.7h-1.1V32.3h2.3c0.5,0,0.9-0.4,0.9-0.9
			C51.3,30.9,50.9,30.5,50.4,30.5z M43.8,32.3h2.6v13.6h-2.6V32.3z M39.4,32.3h2.7v13.6h-2.7V32.3z M35.2,32.3h2.5v13.6h-2.5V32.3z
			 M30.8,32.3h2.7v13.6h-2.7V32.3z M26.4,32.3h2.7v13.6h-2.7V32.3z M22.1,32.3h2.6v13.6h-2.6V32.3z M17.7,32.3h2.7v13.6h-2.7
			C17.7,45.8,17.7,32.3,17.7,32.3z M13.5,32.3h2.5v13.6h-2.5V32.3z M47.5,49.3H12.3v-1.7h35.2V49.3z M20.8,20h8.3v9.1h1.7V20h8.3
			v9.2h1.7V9.9C40.9,9.4,40.5,9,40,9H19.9C19.4,9,19,9.4,19,9.9v19.3h1.7V20z M30.8,10.7h8.3v7.6h-8.3V10.7z M20.8,10.7h8.3v7.6
			h-8.3V10.7z M31.6,25.5V27h3.1c0.4,0,0.8-0.3,0.8-0.8c0-0.4-0.3-0.8-0.8-0.8C34.7,25.5,31.6,25.5,31.6,25.5z"/>
	</g>
</g>
</svg>
