<?xml version="1.0" encoding="utf-8"?>
<!-- Generator: Adobe Illustrator 19.0.0, SVG Export Plug-In . SVG Version: 6.00 Build 0)  -->
<svg version="1.0" id="Layer_1" xmlns="http://www.w3.org/2000/svg" xmlns:xlink="http://www.w3.org/1999/xlink" x="0px" y="0px"
	 viewBox="0 0 60 60" style="enable-background:new 0 0 60 60;" xml:space="preserve">
<style type="text/css">
	.st0{fill:#9B9B9B;}
</style>
<g id="XMLID_608_">
	<path id="XMLID_615_" class="st0" d="M46.5,33.8c-0.2-0.3-0.5-0.4-0.8-0.4h-28V15.2c0-2,1.6-3.5,3.5-3.5h1.9c1.6,0,3,1.1,3.4,2.7
		c-2.5,0.5-4.3,2.8-4.3,5.3v0.8c0,0.6,0.5,1,1,1h8.8c0.6,0,1-0.5,1-1v-0.8c0-2.6-1.9-4.9-4.5-5.4c-0.4-2.7-2.8-4.8-5.5-4.8h-1.9
		c-3.1,0-5.6,2.5-5.6,5.6v18.2h-3.2c-0.6,0-1,0.5-1,1c0,0.1,0,0.2,0,0.3l2.9,9.1c0.4,1.2,1.1,2.2,2,3l-1.2,1.9
		c-0.3,0.5-0.2,1.1,0.3,1.4c0.5,0.3,1.1,0.2,1.4-0.3l1.3-2c0.7,0.3,1.5,0.4,2.3,0.4h17.1c0.8,0,1.6-0.2,2.4-0.4l1.3,2
		c0.3,0.5,0.9,0.7,1.4,0.4c0.5-0.3,0.7-0.9,0.4-1.4c0,0,0-0.1-0.1-0.1l-1.2-1.9c1-0.8,1.7-1.8,2-3l2.9-9.1
		C46.7,34.4,46.7,34.1,46.5,33.8 M27.7,16.3c1.8,0,3.2,1.4,3.4,3.1h-6.7C24.4,17.7,25.9,16.3,27.7,16.3 M41.8,43.2
		c-0.6,1.8-2.3,3.1-4.2,3.1H20.5c-1.9,0-3.6-1.2-4.2-3.1l-2.5-7.7h30.5L41.8,43.2z"/>
	<path id="XMLID_614_" class="st0" d="M29.7,26.4c0.6,0,1.1,0.5,1.1,1.1c0,0.6-0.5,1.1-1.1,1.1c-0.6,0-1.1-0.5-1.1-1.1
		C28.7,26.9,29.2,26.4,29.7,26.4"/>
	<path id="XMLID_613_" class="st0" d="M25.6,26.4c0.6,0,1.1,0.5,1.1,1.1c0,0.6-0.5,1.1-1.1,1.1c-0.6,0-1.1-0.5-1.1-1.1
		C24.5,26.9,25,26.4,25.6,26.4"/>
	<path id="XMLID_612_" class="st0" d="M31.8,29.6c0.6,0,1.1,0.5,1.1,1.1c0,0.6-0.5,1.1-1.1,1.1c-0.6,0-1.1-0.5-1.1-1.1
		C30.8,30,31.2,29.6,31.8,29.6"/>
	<path id="XMLID_611_" class="st0" d="M27.7,29.6c0.6,0,1.1,0.5,1.1,1.1c0,0.6-0.5,1.1-1.1,1.1c-0.6,0-1.1-0.5-1.1-1.1
		C26.6,30,27.1,29.6,27.7,29.6"/>
	<path id="XMLID_610_" class="st0" d="M23.5,29.6c0.6,0,1.1,0.5,1.1,1.1c0,0.6-0.5,1.1-1.1,1.1c-0.6,0-1.1-0.5-1.1-1.1
		C22.4,30,22.9,29.6,23.5,29.6"/>
	<path id="XMLID_609_" class="st0" d="M27.7,23.3c0.6,0,1.1,0.5,1.1,1.1c0,0.6-0.5,1.1-1.1,1.1c-0.6,0-1.1-0.5-1.1-1.1
		C26.6,23.7,27.1,23.3,27.7,23.3"/>
</g>
</svg>
