<?xml version="1.0" encoding="utf-8"?>
<!-- Generator: Adobe Illustrator 19.0.0, SVG Export Plug-In . SVG Version: 6.00 Build 0)  -->
<svg version="1.0" id="Layer_1" xmlns="http://www.w3.org/2000/svg" xmlns:xlink="http://www.w3.org/1999/xlink" x="0px" y="0px"
	 viewBox="0 0 60 60" style="enable-background:new 0 0 60 60;" xml:space="preserve">
<style type="text/css">
	.st0{fill:#9B9B9B;}
</style>
<g id="XMLID_574_">
	<g id="XMLID_575_">
		<path id="XMLID_602_" class="st0" d="M51.7,33H8.3c-0.4,0-0.7,0.3-0.7,0.7v18c0,0.4,0.3,0.7,0.7,0.7h43.4c0.4,0,0.7-0.3,0.7-0.7
			v-18C52.5,33.3,52.1,33,51.7,33z M20.3,34.5v5.2H9v-5.2H20.3z M9,41.2h11.2V51H9V41.2z M21.8,51V34.5h16.5V51H21.8z M51,51H39.7
			V34.5H51V51z"/>
		<path id="XMLID_599_" class="st0" d="M8.3,18h12c0.4,0,0.7-0.3,0.7-0.7v-9c0-0.4-0.3-0.7-0.7-0.7h-12c-0.4,0-0.7,0.3-0.7,0.7v9
			C7.5,17.7,7.9,18,8.3,18z M9,9h10.5v7.5H9V9z"/>
		<path id="XMLID_596_" class="st0" d="M51.7,7.5h-12c-0.4,0-0.7,0.3-0.7,0.7v9c0,0.4,0.3,0.7,0.7,0.7h12c0.4,0,0.7-0.3,0.7-0.7v-9
			C52.5,7.9,52.1,7.5,51.7,7.5z M51,16.5H40.5V9H51V16.5z"/>
		<rect id="XMLID_595_" x="12.8" y="13.5" class="st0" width="3" height="1.5"/>
		<rect id="XMLID_594_" x="44.2" y="13.5" class="st0" width="3" height="1.5"/>
		<rect id="XMLID_593_" x="27.8" y="18.8" class="st0" width="1.5" height="1.5"/>
		<rect id="XMLID_592_" x="30.7" y="18.8" class="st0" width="1.5" height="1.5"/>
		<path id="XMLID_589_" class="st0" d="M35.2,39H24.8c-0.4,0-0.7,0.3-0.7,0.7v9c0,0.4,0.3,0.7,0.7,0.7h10.5c0.4,0,0.7-0.3,0.7-0.7
			v-9C36,39.3,35.7,39,35.2,39z M34.5,48h-9v-7.5h9V48z"/>
		<rect id="XMLID_588_" x="23.3" y="36" class="st0" width="1.5" height="1.5"/>
		<rect id="XMLID_587_" x="26.3" y="36" class="st0" width="1.5" height="1.5"/>
		<rect id="XMLID_586_" x="29.3" y="36" class="st0" width="1.5" height="1.5"/>
		<rect id="XMLID_585_" x="32.2" y="36" class="st0" width="1.5" height="1.5"/>
		<rect id="XMLID_584_" x="35.2" y="36" class="st0" width="1.5" height="1.5"/>
		<rect id="XMLID_583_" x="44.2" y="36" class="st0" width="3" height="1.5"/>
		<rect id="XMLID_582_" x="12.8" y="36" class="st0" width="3.7" height="1.5"/>
		<rect id="XMLID_581_" x="12.8" y="42.7" class="st0" width="3.7" height="1.5"/>
		<rect id="XMLID_580_" x="27" y="42" class="st0" width="6" height="1.5"/>
		<path id="XMLID_576_" class="st0" d="M21.8,23.3h16.5c0.4,0,0.7-0.3,0.7-0.7c0-0.2-0.1-0.3-0.1-0.4l-4.5-6
			c-0.1-0.2-0.4-0.3-0.6-0.3V8.3c0-0.4-0.3-0.7-0.7-0.7h-6c-0.4,0-0.7,0.3-0.7,0.7v7.5c-0.2,0-0.5,0.1-0.6,0.3l-4.5,6
			c-0.2,0.3-0.2,0.8,0.1,1C21.4,23.2,21.6,23.3,21.8,23.3z M27.8,9h4.5v6.7h-4.5V9z M26.6,17.3h6.7l3.4,4.5H23.3L26.6,17.3z"/>
	</g>
</g>
</svg>
