<?xml version="1.0" encoding="utf-8"?>
<!-- Generator: Adobe Illustrator 19.0.0, SVG Export Plug-In . SVG Version: 6.00 Build 0)  -->
<svg version="1.0" id="Layer_1" xmlns="http://www.w3.org/2000/svg" xmlns:xlink="http://www.w3.org/1999/xlink" x="0px" y="0px"
	 viewBox="0 0 60 60" style="enable-background:new 0 0 60 60;" xml:space="preserve">
<style type="text/css">
	.st0{fill:#9B9B9B;}
</style>
<g id="XMLID_1258_">
	<path id="XMLID_1273_" class="st0" d="M37.5,24.6h-6.1l0.8-2.8c0-0.1,0.1-0.3,0.1-0.4c0-0.8-0.6-1.4-1.4-1.4h-0.6v-1.1
		c0.6-0.1,1-0.7,1-1.3c0-0.2,0-0.4-0.1-0.6l-1.4-2.8l-1.4,2.8c-0.1,0.2-0.1,0.4-0.1,0.6c0,0.6,0.4,1.2,1,1.3v1.1h-0.6
		c-0.8,0-1.4,0.6-1.4,1.4c0,0.1,0,0.3,0.1,0.4l0.8,2.8h-6.1c-1.1,0-2.1,0.9-2.1,2.1c0,1.1,0.9,2.1,2.1,2.1h5.1L25,45.9h9.5
		l-2.1-17.1h5.1c1.1,0,2.1-0.9,2.1-2.1C39.6,25.5,38.7,24.6,37.5,24.6z M29.2,17.4l0.5-1l0.5,1c0,0,0,0.1,0,0.1
		c0,0.2-0.1,0.3-0.3,0.3h-0.4c-0.2,0-0.3-0.1-0.3-0.3C29.2,17.5,29.2,17.5,29.2,17.4z M28.2,21.5c0,0,0-0.1,0-0.1
		c0-0.2,0.2-0.4,0.4-0.4h2.3c0.2,0,0.4,0.2,0.4,0.4c0,0,0,0.1,0,0.1l-0.9,3.1h-1.3L28.2,21.5z M26.2,44.8l1.4-11.9h2.1v-1h-2l0.1-1
		h3.7l0.1,1h-1v1h1.1l1.4,11.9H26.2z M31.5,29.8H28l0.1-1h3.2L31.5,29.8z M37.5,27.7h-5.2h-5.1h-5.2c-0.6,0-1-0.5-1-1s0.5-1,1-1h6.4
		h2.9h6.4c0.6,0,1,0.5,1,1S38.1,27.7,37.5,27.7z"/>
	<path id="XMLID_1266_" class="st0" d="M25.1,36.5v-4.1H13.5l-2-12l-4.1,0.7l2.1,12.3l0,0.1v12.4h3.1v-3.6h8.3v3.6H24v-9.3
		L25.1,36.5z M8.5,21.9l2.1-0.3l2,11.9H24v2.1h-3.1h-8.3c-1.6,0-2.1-2.1-2.1-2.2L8.5,21.9z M11.6,44.8h-1v-9.3
		c0.3,0.3,0.6,0.6,1,0.7v2.8v3.1V44.8z M12.6,41.2v-1h8.3v1H12.6z M23,44.8h-1v-2.6v-3.1v-2.6h1V44.8z M20.9,39.1h-8.3v-2.6l8.3,0
		V39.1z"/>
	<path id="XMLID_1259_" class="st0" d="M36,36.5v9.3h3.1v-3.6h8.3v3.6h3.1V33.5l0-0.1l2.1-12.3l-4.1-0.7l-2,12H34.9v4.1L36,36.5z
		 M49.5,33.3c0,0.1-0.5,2.2-2.1,2.2h-8.3H36v-2.1h11.4l2-11.9l2.1,0.3L49.5,33.3z M48.4,42.3v-3.1v-2.8c0.4-0.2,0.8-0.4,1-0.7v9.3
		h-1V42.3z M39.1,41.2v-1h8.3v1H39.1z M37,36.5h1v2.6v3.1v2.6h-1V36.5z M39.1,36.5l8.3,0v2.6h-8.3V36.5z"/>
</g>
</svg>
