<?xml version="1.0" encoding="utf-8"?>
<!-- Generator: Adobe Illustrator 19.0.0, SVG Export Plug-In . SVG Version: 6.00 Build 0)  -->
<svg version="1.0" id="Layer_1" xmlns="http://www.w3.org/2000/svg" xmlns:xlink="http://www.w3.org/1999/xlink" x="0px" y="0px"
	 viewBox="0 0 60 60" style="enable-background:new 0 0 60 60;" xml:space="preserve">
<style type="text/css">
	.st0{fill:#9B9B9B;}
</style>
<g id="XMLID_514_">
	<path id="XMLID_551_" class="st0" d="M26.2,25.5h7.9c0.3,0,0.6-0.2,0.7-0.4l1.6-3.7c0.1-0.2,0.1-0.5-0.1-0.7
		c-0.1-0.2-0.4-0.3-0.6-0.3h-11c-0.2,0-0.5,0.1-0.6,0.3c-0.1,0.2-0.2,0.5-0.1,0.7l1.6,3.7C25.6,25.3,25.9,25.5,26.2,25.5z
		 M34.6,21.8L33.6,24h-7l-0.9-2.2H34.6z"/>
	<path id="XMLID_548_" class="st0" d="M35.6,37.1c-0.1-0.3-0.4-0.6-0.7-0.6h-9.6c-0.4,0-0.7,0.3-0.7,0.6l-0.6,3.7
		c0,0.2,0,0.4,0.2,0.6c0.1,0.2,0.3,0.3,0.6,0.3h11c0.2,0,0.4-0.1,0.6-0.3c0.1-0.2,0.2-0.4,0.1-0.6L35.6,37.1z M25.5,40.2l0.3-2.2
		h8.4l0.5,2.2H25.5z"/>
	<path id="XMLID_543_" class="st0" d="M38.4,44.4l0-0.3c0.1,0.1,0.3,0.2,0.5,0.2c0.4,0,0.7-0.3,0.7-0.7v-4.2c0-0.4-0.3-0.7-0.7-0.7
		c0,0,0,0-0.1,0l0.2-2.8c0.1-0.8,0.1-2.1,0.1-2.9l-0.3-8.2l0.7,0.3c0.1,0,0.2,0.1,0.3,0.1c0.3,0,0.5-0.2,0.7-0.4
		c0.2-0.4,0-0.8-0.4-1l-1.3-0.6l0-0.5c0,0,0.1,0,0.1,0c0.4,0,0.7-0.3,0.7-0.7v-4.2c0-0.4-0.3-0.7-0.7-0.7c-0.1,0-0.2,0-0.3,0.1
		l0-0.9c-0.1-1.5-2-2.6-4.6-2.6h-7.6c-2.2,0-4.5,0.8-4.6,2.2l0,1.3C21.6,17,21.5,17,21.4,17c-0.4,0-0.7,0.3-0.7,0.7v4.2
		c0,0.4,0.3,0.7,0.7,0.7c0,0,0.1,0,0.1,0l0,0.5l-1.3,0.6c-0.4,0.2-0.5,0.6-0.4,1c0.1,0.3,0.4,0.4,0.7,0.4c0.1,0,0.2,0,0.3-0.1
		l0.7-0.3L21.2,33c0,0.8,0,2.1,0.1,2.9l0.2,2.8c0,0,0,0-0.1,0c-0.4,0-0.7,0.3-0.7,0.7v4.2c0,0.4,0.3,0.7,0.7,0.7
		c0.2,0,0.4-0.1,0.5-0.2l0,0.3c0.1,1.1,1.1,2.1,2.2,2.1h5.7c0.1,0,0.2,0,0.2,0c0.1,0,0.2,0,0.2,0h5.7C37.3,46.5,38.3,45.6,38.4,44.4
		z M37.7,33.1c0,0.4,0,0.8,0,1.3l-1.3-1.3v-4.7l1.1-1.2L37.7,33.1z M22.6,34.4c0-0.5,0-1,0-1.3l0.2-5.9l1.1,1.2v4.7L22.6,34.4z
		 M36.1,45h-2.7c0-0.1,0-0.1,0-0.2c0-0.4-0.3-0.7-0.7-0.7h-5.2c-0.4,0-0.7,0.3-0.7,0.7c0,0.1,0,0.1,0,0.2h-2.7
		c-0.4,0-0.7-0.3-0.8-0.7l-0.7-7.9l2.4-2.5c0.1-0.1,0.2-0.3,0.2-0.5v-5.2c0-0.2-0.1-0.4-0.2-0.5l-2.1-2.4c0,0-0.1-0.1-0.1-0.1
		l0.3-7.8l0.1-1.5c0.1-0.1,0.5-0.4,1.4-0.6c0,0.1,0,0.1,0,0.2c0,0.4,0.3,0.7,0.7,0.7h0.6c0.4,0,0.7-0.3,0.7-0.7c0-0.1,0-0.3-0.1-0.4
		h7.2c-0.1,0.1-0.1,0.2-0.1,0.4c0,0.4,0.3,0.7,0.7,0.7H35c0.4,0,0.7-0.3,0.7-0.7c0,0,0-0.1,0-0.1c0.8,0.3,1.4,0.7,1.4,1l0.1,1.9
		l0.3,7c0,0-0.1,0.1-0.1,0.1l-2.1,2.4C35,27.8,35,28,35,28.1v5.2c0,0.2,0.1,0.4,0.2,0.5l2.4,2.5l-0.7,7.9C36.9,44.7,36.5,45,36.1,45
		z"/>
	<path id="XMLID_542_" class="st0" d="M44.8,49.5c-0.4,0-0.7,0.3-0.7,0.7v0.5h-0.5c-0.4,0-0.7,0.3-0.7,0.7s0.3,0.7,0.7,0.7h1.2
		c0.4,0,0.7-0.3,0.7-0.7v-1.2C45.5,49.8,45.2,49.5,44.8,49.5z"/>
	<path id="XMLID_541_" class="st0" d="M34.2,50.7h-2.5c-0.4,0-0.7,0.3-0.7,0.7s0.3,0.7,0.7,0.7h2.5c0.4,0,0.7-0.3,0.7-0.7
		S34.6,50.7,34.2,50.7z"/>
	<path id="XMLID_540_" class="st0" d="M22.3,50.7h-2.5c-0.4,0-0.7,0.3-0.7,0.7s0.3,0.7,0.7,0.7h2.5c0.4,0,0.7-0.3,0.7-0.7
		S22.8,50.7,22.3,50.7z"/>
	<path id="XMLID_539_" class="st0" d="M28.3,50.7h-2.5c-0.4,0-0.7,0.3-0.7,0.7s0.3,0.7,0.7,0.7h2.5c0.4,0,0.7-0.3,0.7-0.7
		S28.7,50.7,28.3,50.7z"/>
	<path id="XMLID_538_" class="st0" d="M40.1,50.7h-2.5c-0.4,0-0.7,0.3-0.7,0.7s0.3,0.7,0.7,0.7h2.5c0.4,0,0.7-0.3,0.7-0.7
		S40.5,50.7,40.1,50.7z"/>
	<path id="XMLID_537_" class="st0" d="M16.4,50.7h-0.5v-0.5c0-0.4-0.3-0.7-0.7-0.7c-0.4,0-0.7,0.3-0.7,0.7v1.2
		c0,0.4,0.3,0.7,0.7,0.7h1.2c0.4,0,0.7-0.3,0.7-0.7S16.8,50.7,16.4,50.7z"/>
	<path id="XMLID_536_" class="st0" d="M15.2,16.6c0.4,0,0.7-0.3,0.7-0.7v-2.6c0-0.4-0.3-0.7-0.7-0.7c-0.4,0-0.7,0.3-0.7,0.7v2.6
		C14.5,16.3,14.8,16.6,15.2,16.6z"/>
	<path id="XMLID_535_" class="st0" d="M15.2,35.1c0.4,0,0.7-0.3,0.7-0.7v-2.6c0-0.4-0.3-0.7-0.7-0.7c-0.4,0-0.7,0.3-0.7,0.7v2.6
		C14.5,34.8,14.8,35.1,15.2,35.1z"/>
	<path id="XMLID_534_" class="st0" d="M15.2,41.2c0.4,0,0.7-0.3,0.7-0.7v-2.6c0-0.4-0.3-0.7-0.7-0.7c-0.4,0-0.7,0.3-0.7,0.7v2.6
		C14.5,40.9,14.8,41.2,15.2,41.2z"/>
	<path id="XMLID_533_" class="st0" d="M15.2,28.9c0.4,0,0.7-0.3,0.7-0.7v-2.6c0-0.4-0.3-0.7-0.7-0.7c-0.4,0-0.7,0.3-0.7,0.7v2.6
		C14.5,28.6,14.8,28.9,15.2,28.9z"/>
	<path id="XMLID_532_" class="st0" d="M15.2,47.4c0.4,0,0.7-0.3,0.7-0.7v-2.6c0-0.4-0.3-0.7-0.7-0.7c-0.4,0-0.7,0.3-0.7,0.7v2.6
		C14.5,47.1,14.8,47.4,15.2,47.4z"/>
	<path id="XMLID_531_" class="st0" d="M15.2,22.8c0.4,0,0.7-0.3,0.7-0.7v-2.6c0-0.4-0.3-0.7-0.7-0.7c-0.4,0-0.7,0.3-0.7,0.7v2.6
		C14.5,22.5,14.8,22.8,15.2,22.8z"/>
	<path id="XMLID_530_" class="st0" d="M16.4,7.8h-1.2c-0.4,0-0.7,0.3-0.7,0.7v1.2c0,0.4,0.3,0.7,0.7,0.7c0.4,0,0.7-0.3,0.7-0.7V9.3
		h0.5c0.4,0,0.7-0.3,0.7-0.7C17.2,8.1,16.8,7.8,16.4,7.8z"/>
	<path id="XMLID_529_" class="st0" d="M31.7,9.3h2.5c0.4,0,0.7-0.3,0.7-0.7c0-0.4-0.3-0.7-0.7-0.7h-2.5c-0.4,0-0.7,0.3-0.7,0.7
		C31,8.9,31.3,9.3,31.7,9.3z"/>
	<path id="XMLID_527_" class="st0" d="M40.1,7.8h-2.5c-0.4,0-0.7,0.3-0.7,0.7c0,0.4,0.3,0.7,0.7,0.7h2.5c0.4,0,0.7-0.3,0.7-0.7
		C40.9,8.1,40.5,7.8,40.1,7.8z"/>
	<path id="XMLID_526_" class="st0" d="M25.8,9.3h2.5c0.4,0,0.7-0.3,0.7-0.7c0-0.4-0.3-0.7-0.7-0.7h-2.5c-0.4,0-0.7,0.3-0.7,0.7
		C25.1,8.9,25.4,9.3,25.8,9.3z"/>
	<path id="XMLID_523_" class="st0" d="M19.9,9.3h2.5c0.4,0,0.7-0.3,0.7-0.7c0-0.4-0.3-0.7-0.7-0.7h-2.5c-0.4,0-0.7,0.3-0.7,0.7
		C19.1,8.9,19.5,9.3,19.9,9.3z"/>
	<path id="XMLID_522_" class="st0" d="M44.8,7.8h-1.2c-0.4,0-0.7,0.3-0.7,0.7c0,0.4,0.3,0.7,0.7,0.7h0.5v0.5c0,0.4,0.3,0.7,0.7,0.7
		c0.4,0,0.7-0.3,0.7-0.7V8.5C45.5,8.1,45.2,7.8,44.8,7.8z"/>
	<path id="XMLID_520_" class="st0" d="M44.8,31.1c-0.4,0-0.7,0.3-0.7,0.7v2.6c0,0.4,0.3,0.7,0.7,0.7c0.4,0,0.7-0.3,0.7-0.7v-2.6
		C45.5,31.4,45.2,31.1,44.8,31.1z"/>
	<path id="XMLID_519_" class="st0" d="M44.8,18.8c-0.4,0-0.7,0.3-0.7,0.7v2.6c0,0.4,0.3,0.7,0.7,0.7c0.4,0,0.7-0.3,0.7-0.7v-2.6
		C45.5,19.1,45.2,18.8,44.8,18.8z"/>
	<path id="XMLID_518_" class="st0" d="M44.8,12.6c-0.4,0-0.7,0.3-0.7,0.7v2.6c0,0.4,0.3,0.7,0.7,0.7c0.4,0,0.7-0.3,0.7-0.7v-2.6
		C45.5,12.9,45.2,12.6,44.8,12.6z"/>
	<path id="XMLID_517_" class="st0" d="M44.8,37.2c-0.4,0-0.7,0.3-0.7,0.7v2.6c0,0.4,0.3,0.7,0.7,0.7c0.4,0,0.7-0.3,0.7-0.7v-2.6
		C45.5,37.5,45.2,37.2,44.8,37.2z"/>
	<path id="XMLID_516_" class="st0" d="M44.8,43.4c-0.4,0-0.7,0.3-0.7,0.7v2.6c0,0.4,0.3,0.7,0.7,0.7c0.4,0,0.7-0.3,0.7-0.7v-2.6
		C45.5,43.7,45.2,43.4,44.8,43.4z"/>
	<path id="XMLID_515_" class="st0" d="M44.8,24.9c-0.4,0-0.7,0.3-0.7,0.7v2.6c0,0.4,0.3,0.7,0.7,0.7c0.4,0,0.7-0.3,0.7-0.7v-2.6
		C45.5,25.2,45.2,24.9,44.8,24.9z"/>
</g>
</svg>
