<?xml version="1.0" encoding="utf-8"?>
<!-- Generator: Adobe Illustrator 19.0.0, SVG Export Plug-In . SVG Version: 6.00 Build 0)  -->
<svg version="1.0" id="Layer_1" xmlns="http://www.w3.org/2000/svg" xmlns:xlink="http://www.w3.org/1999/xlink" x="0px" y="0px"
	 viewBox="0 0 60 60" style="enable-background:new 0 0 60 60;" xml:space="preserve">
<style type="text/css">
	.st0{fill:#9B9B9B;}
</style>
<g id="XMLID_562_" transform="translate(0,-952.36215)">
	<path id="XMLID_563_" class="st0" d="M19.5,966c-0.3,0-0.6,0.2-0.8,0.6l-2.7,6.4c0,0.1-0.1,0.2-0.1,0.4v24.5c0,0.5,0.4,0.9,0.9,0.9
		h26.3c0.5,0,0.9-0.4,0.9-0.9v-24.5c0-0.1,0-0.2-0.1-0.4l-2.7-6.4c-0.1-0.3-0.5-0.6-0.8-0.6H19.5C19.5,966,19.5,966,19.5,966z
		 M20.2,967.8h19.7l1.9,4.5H18.2L20.2,967.8z M34.5,968.8c-0.8,0-1.4,0.6-1.4,1.4s0.6,1.4,1.4,1.4c0.8,0,1.4-0.6,1.4-1.4
		C35.9,969.4,35.3,968.8,34.5,968.8z M38.2,968.8c-0.8,0-1.4,0.6-1.4,1.4s0.6,1.4,1.4,1.4c0.8,0,1.4-0.6,1.4-1.4
		C39.5,969.4,38.9,968.8,38.2,968.8z M17.7,974.2h24.5v22.7H17.7V974.2z M30,976.5c-5,0-9.1,4.1-9.1,9.1s4.1,9.1,9.1,9.1
		s9.1-4.1,9.1-9.1C39.1,980.5,35,976.5,30,976.5z M30,978.3c4,0,7.3,3.2,7.3,7.3s-3.2,7.3-7.3,7.3s-7.3-3.2-7.3-7.3
		S26,978.3,30,978.3z M30,979.6c-3.2,0-5.9,2.7-5.9,5.9c0,3.2,2.7,5.9,5.9,5.9s5.9-2.7,5.9-5.9S33.2,979.6,30,979.6z M30,981.5
		c2.2,0,3.9,1.7,4.1,3.8c-0.8,0.5-1.3,0.6-1.5,0.6c-0.2,0-0.4-0.1-0.7-0.4c-0.6-0.5-1.7-1.8-3.7-1.8c-0.8,0-1.3,0.1-1.8,0.3
		c-0.1,0-0.1,0.1-0.2,0.1C26.8,982.5,28.3,981.5,30,981.5L30,981.5z M28.2,985.5c1.3,0,1.6,0.6,2.5,1.3c0.4,0.4,1,0.8,1.8,0.8
		c0.4,0,0.7-0.1,1.1-0.2c-0.7,1.3-2,2.2-3.6,2.2c-2,0-3.7-1.4-4-3.3c0.6-0.3,0.9-0.5,1.1-0.6C27.3,985.6,27.5,985.5,28.2,985.5z"/>
</g>
</svg>
