<?xml version="1.0" encoding="utf-8"?>
<!-- Generator: Adobe Illustrator 19.0.0, SVG Export Plug-In . SVG Version: 6.00 Build 0)  -->
<svg version="1.0" id="Layer_1" xmlns="http://www.w3.org/2000/svg" xmlns:xlink="http://www.w3.org/1999/xlink" x="0px" y="0px"
	 viewBox="0 0 60 60" style="enable-background:new 0 0 60 60;" xml:space="preserve">
<style type="text/css">
	.st0{fill:#9B9B9B;}
</style>
<g id="XMLID_619_">
	<path id="XMLID_629_" class="st0" d="M58,40.4L58,40.4c-0.1-0.6-0.3-1.1-0.6-1.6l-3.9-10.7v-2c0-4.2-3.4-7.6-7.6-7.6H33.3
		c-4.2,0-7.6,3.4-7.6,7.6v2l-4.2,11.2c-0.1,0.1-0.1,0.3-0.2,0.4l-0.2,0.4v0.4V41v3.8v4.5h1.3v-3.9h34.4v3.9h1.3v-4.5V41v-0.3
		C58.1,40.5,58.1,40.5,58,40.4 M26.6,29.3h4.3v1.9c0,0.4,0.3,0.6,0.6,0.6h16.2c0.4,0,0.6-0.3,0.6-0.6v-1.9h4.3l2.8,7.6
		c-0.6-0.3-1.1-0.4-1.8-0.4h-28c-0.7,0-1.3,0.1-1.9,0.4L26.6,29.3z M47.1,30.6h-6.9v-6h6.9V30.6z M39,30.6h-6.9v-6H39V30.6z
		 M27,26.1c0-3.5,2.8-6.3,6.3-6.3H46c3.5,0,6.3,2.8,6.3,6.3v2h-3.9v-4.2c0-0.4-0.3-0.6-0.6-0.6H31.5c-0.4,0-0.6,0.3-0.6,0.6v4.2H27
		V26.1z M22.4,41c0-0.4,0.1-0.8,0.2-1.1l0.1-0.1c0.5-1.1,1.6-1.9,2.9-1.9h28.1c1.1,0,2.1,0.6,2.6,1.4l0.4,1.3c0,0.1,0.1,0.3,0.1,0.4
		v3.1H22.4V41z"/>
	<path id="XMLID_623_" class="st0" d="M3.1,47.3v2h1.3v-2h10.6v2h1.3v-2h0.5c0.4,0,0.6-0.3,0.6-0.6V27.8c0-1.8-1.4-3.1-3.1-3.1h-3.8
		v-5.9h4.5c0.2,0,0.4-0.1,0.5-0.3c0.1-0.1,0.2-0.3,0.1-0.5l-1-4.8c-0.3-1.4-1.6-2.5-3.1-2.5H7.8c-1.5,0-2.8,1.1-3.1,2.5l-1,4.8
		c-0.1,0.2,0,0.4,0.1,0.5c0.1,0.1,0.3,0.3,0.5,0.3H9v5.9h-4c-1.8,0-3.1,1.4-3.1,3.1v18.8c0,0.4,0.3,0.6,0.6,0.6H3.1z M5.9,13.4
		c0.2-0.9,0.9-1.5,1.8-1.5h3.7c0.9,0,1.7,0.6,1.8,1.5l0.8,4.1H5.1L5.9,13.4z M16,36.7H3.2V32H16V36.7z M3.2,38H16V46H3.2V38z
		 M5.1,25.9h9c1.1,0,1.9,0.8,1.9,1.9v2.9H3.2v-2.9C3.2,26.8,4.1,25.9,5.1,25.9"/>
	<rect id="XMLID_622_" x="7.9" y="33.6" class="st0" width="3.3" height="1.3"/>
	<rect id="XMLID_621_" x="7.9" y="27.7" class="st0" width="3.3" height="1.3"/>
	<rect id="XMLID_620_" x="7.9" y="39.9" class="st0" width="3.3" height="1.3"/>
</g>
</svg>
