<?xml version="1.0" encoding="utf-8"?>
<!-- Generator: Adobe Illustrator 19.0.0, SVG Export Plug-In . SVG Version: 6.00 Build 0)  -->
<svg version="1.0" id="Layer_1" xmlns="http://www.w3.org/2000/svg" xmlns:xlink="http://www.w3.org/1999/xlink" x="0px" y="0px"
	 viewBox="0 0 60 60" style="enable-background:new 0 0 60 60;" xml:space="preserve">
<style type="text/css">
	.st0{fill:#9B9B9B;}
</style>
<g id="XMLID_1280_">
	<path id="XMLID_1287_" class="st0" d="M22.6,48.4h-5.5V14.9c0-1.8,1.6-3.4,3.4-3.4c1.7,0,3,1,3.2,2.6c-2,0.3-3.6,2.1-3.6,4.2V22
		h8.6v-3.6c0-2.2-1.7-3.9-3.7-4.2c-0.2-2.3-2.2-3.9-4.5-3.9c-2.5,0-4.7,2-4.7,4.6v33.5h-5.5v1.2h12.3V48.4z M27.5,18.4v2.3h-6.1
		v-2.3c0-1.7,1.4-3.1,3.1-3.1S27.5,16.7,27.5,18.4z"/>
	<path id="XMLID_1281_" class="st0" d="M46.8,25.7H27.3c-1.6,0-2.9,1.3-2.9,2.9v3v7.5l-0.1,10c0,0.4,0.2,0.6,0.6,0.6l0,0
		c0.3,0,0.6-0.2,0.6-0.6v-1.2h22.8v1.2c0,0.4,0.2,0.6,0.6,0.6l0,0c0.3,0,0.6-0.2,0.6-0.6l0.1-9.3h-0.1V28.6
		C49.6,27,48.4,25.7,46.8,25.7z M48.4,38.6h-4.3v-4.5c0-0.7,0.6-1,1.4-1h3V38.6z M25.7,28.6c0-0.9,0.7-1.7,1.7-1.7h19.5
		c0.9,0,1.6,0.7,1.6,1.7v3.3h-3c-1.4,0-2.6,0.9-2.6,2.3v4.5H31.2v-4.5c0-1.4-1.2-2.3-2.6-2.3h-3V28.6z M30,38.6h-4.3v-5.5h3
		c0.7,0,1.4,0.3,1.4,1V38.6z M25.6,46.6l0.1-6.8h5.5h11.7h5.6l-0.1,6.8H25.6z"/>
</g>
</svg>
