<?xml version="1.0" encoding="utf-8"?>
<!-- Generator: Adobe Illustrator 19.0.0, SVG Export Plug-In . SVG Version: 6.00 Build 0)  -->
<svg version="1.0" id="Layer_1" xmlns="http://www.w3.org/2000/svg" xmlns:xlink="http://www.w3.org/1999/xlink" x="0px" y="0px"
	 viewBox="-4 6 30 30" style="enable-background:new -4 6 30 30;" xml:space="preserve">
<style type="text/css">
	.st0{fill:#9B9B9B;}
</style>
<g id="XMLID_2_">
	<path id="XMLID_4_" class="st0" d="M19.4,24.4c3.1-5.9,0.8-13.1-5-16.2s-13.1-0.8-16.2,5s-0.8,13.1,5,16.2c3.5,1.8,7.7,1.8,11.2,0
		l4.7,4.7c1.3,1.4,3.6,1.5,5,0.2c1.4-1.3,1.5-3.6,0.2-5c-0.1-0.1-0.1-0.1-0.2-0.2L19.4,24.4z M2,25.6c-3.8-3.8-3.8-9.9,0-13.6
		s9.9-3.8,13.6,0s3.8,9.9,0,13.6c-1.8,1.8-4.3,2.8-6.8,2.8C6.2,28.4,3.8,27.4,2,25.6L2,25.6z M22.4,32.4c-0.5,0.5-1.2,0.5-1.7,0
		l-4.3-4.3c0.3-0.2,0.6-0.5,0.9-0.8c0.3-0.3,0.5-0.6,0.8-0.9l4.3,4.3C22.9,31.2,22.9,31.9,22.4,32.4L22.4,32.4z"/>
	<path id="XMLID_3_" class="st0" d="M13.1,17.6H10v-3.2c0-0.7-0.5-1.2-1.2-1.2c-0.7,0-1.2,0.5-1.2,1.2v3.2H4.4
		c-0.7,0-1.2,0.5-1.2,1.2c0,0.7,0.5,1.2,1.2,1.2h3.2v3.2c0,0.7,0.5,1.2,1.2,1.2c0.7,0,1.2-0.5,1.2-1.2V20h3.2c0.7,0,1.2-0.5,1.2-1.2
		C14.3,18.1,13.8,17.6,13.1,17.6z"/>
</g>
</svg>
