<?xml version="1.0" encoding="utf-8"?>
<!-- Generator: Adobe Illustrator 19.0.0, SVG Export Plug-In . SVG Version: 6.00 Build 0)  -->
<svg version="1.0" id="Layer_1" xmlns="http://www.w3.org/2000/svg" xmlns:xlink="http://www.w3.org/1999/xlink" x="0px" y="0px"
	 viewBox="0 0 649.3 182.7" style="enable-background:new 0 0 649.3 182.7;" xml:space="preserve">
<style type="text/css">
	.st0{fill:#FFFFFF;}
	.st1{fill:#35CAD2;}
	.st2{fill:#004BB7;}
</style>
<g id="XMLID_1_">
	<path id="XMLID_2_" class="st0" d="M16.9,172.9v-15.5h-6v-0.9h13v0.9h-6v15.5H16.9z"/>
	<path id="XMLID_4_" class="st0" d="M38.7,172.9h-1l-2-5.4c-0.3-0.8-0.7-1.3-1.2-1.6s-1.2-0.4-2.1-0.4h-5.1v7.4h-0.9v-16.3h6.1
		c1.7,0,3,0.4,3.9,1.1c0.9,0.8,1.4,1.8,1.4,3.3c0,1.1-0.3,1.9-0.8,2.6c-0.6,0.7-1.4,1.2-2.4,1.5c0.5,0.1,0.9,0.3,1.2,0.6
		c0.3,0.3,0.6,0.8,0.8,1.4L38.7,172.9z M32.5,164.6c1.4,0,2.4-0.3,3.2-0.9c0.7-0.6,1.1-1.5,1.1-2.7c0-2.3-1.4-3.5-4.2-3.5h-5.1v7.1
		H32.5z"/>
	<path id="XMLID_7_" class="st0" d="M42.1,172.9v-16.3h9.8v0.9h-8.9v6.7h8.4v0.9h-8.4v6.9h8.9v0.9H42.1z"/>
	<path id="XMLID_9_" class="st0" d="M56.8,172.6c-1-0.4-1.8-0.9-2.6-1.7l0.5-0.8c0.8,0.8,1.6,1.3,2.5,1.6s1.8,0.5,3,0.5
		c1.5,0,2.6-0.3,3.4-0.9c0.8-0.6,1.2-1.5,1.2-2.6c0-0.6-0.2-1.2-0.6-1.6c-0.4-0.4-0.9-0.7-1.5-0.9c-0.6-0.2-1.4-0.4-2.4-0.7
		c-1.3-0.3-2.3-0.6-3-0.8c-0.7-0.3-1.4-0.7-1.9-1.3s-0.8-1.4-0.8-2.4c0-0.9,0.2-1.7,0.7-2.4s1.1-1.2,2-1.6s1.8-0.6,3-0.6
		c2.3,0,4.1,0.7,5.5,2.2l-0.5,0.8c-0.8-0.7-1.6-1.2-2.4-1.6c-0.8-0.3-1.7-0.5-2.6-0.5c-1.5,0-2.6,0.3-3.4,1
		c-0.8,0.6-1.2,1.5-1.2,2.7c0,1,0.4,1.7,1.1,2.2c0.7,0.5,1.7,0.9,3,1.2l1,0.3c1.1,0.3,2,0.5,2.7,0.8c0.7,0.3,1.3,0.6,1.8,1.2
		s0.7,1.3,0.7,2.2c0,0.9-0.2,1.6-0.7,2.3c-0.5,0.7-1.1,1.2-2,1.6c-0.8,0.4-1.8,0.6-2.9,0.6C58.8,173.1,57.7,172.9,56.8,172.6z"/>
	<path id="XMLID_11_" class="st0" d="M77.6,172.1c-1.2-0.7-2.1-1.7-2.8-2.9c-0.6-1.3-1-2.7-1-4.4c0-1.7,0.3-3.2,1-4.4
		c0.6-1.3,1.6-2.2,2.8-2.9c1.2-0.7,2.6-1,4.2-1c1.1,0,2.1,0.2,3.1,0.5c1,0.3,1.8,0.8,2.4,1.4l-1,2.2c-0.7-0.6-1.5-1-2.2-1.3
		s-1.5-0.4-2.3-0.4c-1.6,0-2.8,0.5-3.7,1.5c-0.9,1-1.3,2.5-1.3,4.4c0,1.9,0.4,3.4,1.3,4.4c0.9,1,2.1,1.5,3.7,1.5
		c0.8,0,1.6-0.1,2.3-0.4s1.5-0.7,2.2-1.3l1,2.2c-0.6,0.6-1.4,1.1-2.4,1.4c-1,0.3-2,0.5-3.1,0.5C80.2,173.1,78.8,172.8,77.6,172.1z"
		/>
	<path id="XMLID_13_" class="st0" d="M92.9,172.1c-1.2-0.7-2.1-1.7-2.7-2.9c-0.6-1.3-1-2.8-1-4.5c0-1.7,0.3-3.2,0.9-4.4
		c0.6-1.3,1.5-2.2,2.7-2.9c1.2-0.7,2.6-1,4.1-1c1.6,0,3,0.3,4.1,1c1.2,0.7,2.1,1.6,2.7,2.9c0.6,1.3,0.9,2.7,0.9,4.4
		c0,1.7-0.3,3.2-0.9,4.5c-0.6,1.3-1.5,2.2-2.7,2.9c-1.2,0.7-2.5,1-4.1,1C95.4,173.1,94.1,172.8,92.9,172.1z M100.5,169.2
		c0.8-1,1.3-2.5,1.3-4.5c0-1.9-0.4-3.4-1.3-4.4c-0.8-1-2-1.5-3.5-1.5s-2.7,0.5-3.5,1.5c-0.8,1-1.3,2.5-1.3,4.5
		c0,1.9,0.4,3.4,1.3,4.5s2,1.6,3.5,1.6S99.7,170.2,100.5,169.2z"/>
	<path id="XMLID_16_" class="st0" d="M118.8,156.6h2.8v16.3h-2.2l-8.8-11.5v11.5h-2.8v-16.3h2.2l8.8,11.4V156.6z"/>
	<path id="XMLID_18_" class="st0" d="M128.3,172.1c-1.2-0.7-2.1-1.7-2.8-2.9c-0.6-1.3-1-2.7-1-4.4c0-1.7,0.3-3.2,1-4.4
		c0.6-1.3,1.6-2.2,2.8-2.9c1.2-0.7,2.6-1,4.2-1c1.1,0,2.1,0.2,3.1,0.5c1,0.3,1.8,0.8,2.4,1.4l-1,2.2c-0.7-0.6-1.5-1-2.2-1.3
		s-1.5-0.4-2.3-0.4c-1.6,0-2.8,0.5-3.7,1.5c-0.9,1-1.3,2.5-1.3,4.4c0,1.9,0.4,3.4,1.3,4.4c0.9,1,2.1,1.5,3.7,1.5
		c0.8,0,1.6-0.1,2.3-0.4s1.5-0.7,2.2-1.3l1,2.2c-0.6,0.6-1.4,1.1-2.4,1.4c-1,0.3-2,0.5-3.1,0.5C130.9,173.1,129.5,172.8,128.3,172.1
		z"/>
	<path id="XMLID_20_" class="st0" d="M140.8,172.9v-16.3h10.9v2.3h-8v4.5h7.6v2.3h-7.6v4.8h8v2.3H140.8z"/>
	<path id="XMLID_22_" class="st0" d="M154.5,156.6h7.1c1.8,0,3.1,0.4,4.1,1.3c1,0.8,1.5,2,1.5,3.5s-0.5,2.6-1.5,3.5
		c-1,0.9-2.4,1.3-4.1,1.3h-4.1v6.8h-3V156.6z M161.2,163.8c1,0,1.8-0.2,2.3-0.6s0.8-1,0.8-1.8c0-0.8-0.3-1.4-0.8-1.8
		c-0.5-0.4-1.3-0.6-2.3-0.6h-3.8v4.9H161.2z"/>
	<path id="XMLID_25_" class="st0" d="M173.2,172.9V159h-5.3v-2.4h13.7v2.4h-5.3v13.9H173.2z"/>
	<path id="XMLID_27_" class="st0" d="M185.8,172.1c-1.2-0.7-2.1-1.7-2.7-2.9c-0.6-1.3-1-2.8-1-4.5c0-1.7,0.3-3.2,0.9-4.4
		c0.6-1.3,1.5-2.2,2.7-2.9c1.2-0.7,2.6-1,4.1-1c1.6,0,3,0.3,4.1,1c1.2,0.7,2.1,1.6,2.7,2.9c0.6,1.3,0.9,2.7,0.9,4.4
		c0,1.7-0.3,3.2-0.9,4.5c-0.6,1.3-1.5,2.2-2.7,2.9c-1.2,0.7-2.5,1-4.1,1C188.3,173.1,186.9,172.8,185.8,172.1z M193.4,169.2
		c0.8-1,1.3-2.5,1.3-4.5c0-1.9-0.4-3.4-1.3-4.4c-0.8-1-2-1.5-3.5-1.5s-2.7,0.5-3.5,1.5c-0.8,1-1.3,2.5-1.3,4.5
		c0,1.9,0.4,3.4,1.3,4.5s2,1.6,3.5,1.6S192.6,170.2,193.4,169.2z"/>
	<path id="XMLID_30_" class="st0" d="M202.7,172.6c-1.1-0.3-2-0.8-2.8-1.4l1-2.2c0.8,0.6,1.6,1,2.5,1.3c0.9,0.3,1.8,0.4,2.8,0.4
		c1.1,0,2-0.2,2.6-0.6s0.9-1,0.9-1.7c0-0.6-0.3-1.1-0.9-1.4s-1.5-0.6-2.8-0.9c-2.1-0.4-3.5-1-4.5-1.7s-1.4-1.7-1.4-3.1
		c0-1,0.3-1.8,0.8-2.6c0.5-0.8,1.3-1.3,2.2-1.8c1-0.4,2.1-0.6,3.3-0.6c1.1,0,2.2,0.2,3.3,0.5c1,0.3,1.9,0.8,2.5,1.4l-1,2.2
		c-1.5-1.2-3.1-1.7-4.8-1.7c-1.1,0-1.9,0.2-2.5,0.7c-0.6,0.4-0.9,1-0.9,1.8c0,0.6,0.3,1.1,0.8,1.5c0.5,0.3,1.5,0.7,2.8,0.9
		c1.4,0.3,2.5,0.7,3.3,1c0.9,0.4,1.5,0.9,2,1.4s0.7,1.3,0.7,2.2c0,1-0.3,1.8-0.8,2.6c-0.5,0.7-1.3,1.3-2.2,1.7
		c-1,0.4-2.1,0.6-3.5,0.6C204.9,173.1,203.8,173,202.7,172.6z"/>
	<path id="XMLID_32_" class="st0" d="M221.6,156.6h5c2.6,0,4.5,0.7,5.9,2.1c1.4,1.4,2.1,3.4,2.1,6s-0.7,4.6-2.1,6.1
		c-1.4,1.4-3.4,2.1-5.9,2.1h-5V156.6z M226.7,172c2.3,0,4.1-0.6,5.2-1.8s1.8-3.1,1.8-5.5c0-2.4-0.6-4.2-1.8-5.5
		c-1.2-1.2-2.9-1.8-5.2-1.8h-4.1V172H226.7z"/>
	<path id="XMLID_35_" class="st0" d="M238.5,172.9v-16.3h0.9v16.3H238.5z"/>
	<path id="XMLID_43_" class="st0" d="M245.4,172.6c-1-0.4-1.8-0.9-2.6-1.7l0.5-0.8c0.8,0.8,1.6,1.3,2.5,1.6s1.8,0.5,3,0.5
		c1.5,0,2.6-0.3,3.4-0.9c0.8-0.6,1.2-1.5,1.2-2.6c0-0.6-0.2-1.2-0.6-1.6c-0.4-0.4-0.9-0.7-1.5-0.9c-0.6-0.2-1.4-0.4-2.4-0.7
		c-1.3-0.3-2.3-0.6-3-0.8c-0.7-0.3-1.4-0.7-1.9-1.3s-0.8-1.4-0.8-2.4c0-0.9,0.2-1.7,0.7-2.4s1.1-1.2,2-1.6s1.8-0.6,3-0.6
		c2.3,0,4.1,0.7,5.5,2.2l-0.5,0.8c-0.8-0.7-1.6-1.2-2.4-1.6c-0.8-0.3-1.7-0.5-2.6-0.5c-1.5,0-2.6,0.3-3.4,1
		c-0.8,0.6-1.2,1.5-1.2,2.7c0,1,0.4,1.7,1.1,2.2c0.7,0.5,1.7,0.9,3,1.2l1,0.3c1.1,0.3,2,0.5,2.7,0.8c0.7,0.3,1.3,0.6,1.8,1.2
		s0.7,1.3,0.7,2.2c0,0.9-0.2,1.6-0.7,2.3c-0.5,0.7-1.1,1.2-2,1.6c-0.8,0.4-1.8,0.6-2.9,0.6C247.5,173.1,246.4,172.9,245.4,172.6z"/>
	<path id="XMLID_45_" class="st0" d="M261.4,172.9v-15.5h-6v-0.9h13v0.9h-6v15.5H261.4z"/>
	<path id="XMLID_47_" class="st0" d="M270.9,172.9v-16.3h0.9v16.3H270.9z"/>
	<path id="XMLID_49_" class="st0" d="M287.9,156.6h0.9v16.3H288l-10.8-14.7v14.7h-0.9v-16.3h0.8l10.8,14.7V156.6z"/>
	<path id="XMLID_51_" class="st0" d="M297.3,172.9v-15.5h-6v-0.9h13v0.9h-6v15.5H297.3z"/>
	<path id="XMLID_53_" class="st0" d="M308.4,172.1c-1.1-0.7-1.9-1.6-2.5-2.9s-0.9-2.7-0.9-4.5s0.3-3.2,0.9-4.5
		c0.6-1.3,1.4-2.2,2.5-2.9c1.1-0.7,2.3-1,3.8-1s2.7,0.3,3.8,1c1.1,0.7,1.9,1.6,2.5,2.9s0.9,2.7,0.9,4.4c0,1.7-0.3,3.2-0.9,4.5
		c-0.6,1.3-1.4,2.2-2.5,2.9c-1.1,0.7-2.4,1-3.8,1C310.8,173.1,309.5,172.8,308.4,172.1z M316.7,170.2c1.1-1.3,1.6-3.1,1.6-5.5
		c0-2.4-0.5-4.2-1.6-5.5s-2.6-1.9-4.5-1.9c-1.9,0-3.4,0.6-4.5,1.9c-1.1,1.3-1.6,3.1-1.6,5.5s0.5,4.2,1.6,5.5c1.1,1.3,2.6,2,4.5,2
		C314.2,172.2,315.7,171.5,316.7,170.2z"/>
	<path id="XMLID_56_" class="st0" d="M324.7,172.6c-1-0.4-1.8-0.9-2.6-1.7l0.5-0.8c0.8,0.8,1.6,1.3,2.5,1.6s1.8,0.5,3,0.5
		c1.5,0,2.6-0.3,3.4-0.9c0.8-0.6,1.2-1.5,1.2-2.6c0-0.6-0.2-1.2-0.6-1.6s-0.9-0.7-1.5-0.9c-0.6-0.2-1.4-0.4-2.4-0.7
		c-1.3-0.3-2.3-0.6-3-0.8c-0.7-0.3-1.4-0.7-1.9-1.3s-0.8-1.4-0.8-2.4c0-0.9,0.2-1.7,0.7-2.4s1.1-1.2,2-1.6s1.8-0.6,3-0.6
		c2.3,0,4.1,0.7,5.5,2.2l-0.5,0.8c-0.8-0.7-1.6-1.2-2.4-1.6c-0.8-0.3-1.7-0.5-2.6-0.5c-1.5,0-2.6,0.3-3.4,1
		c-0.8,0.6-1.2,1.5-1.2,2.7c0,1,0.4,1.7,1.1,2.2c0.7,0.5,1.7,0.9,3,1.2l1,0.3c1.1,0.3,2,0.5,2.7,0.8c0.7,0.3,1.3,0.6,1.8,1.2
		c0.5,0.5,0.7,1.3,0.7,2.2c0,0.9-0.2,1.6-0.7,2.3c-0.5,0.7-1.1,1.2-2,1.6c-0.8,0.4-1.8,0.6-2.9,0.6
		C326.8,173.1,325.7,172.9,324.7,172.6z"/>
	<path id="XMLID_58_" class="st0" d="M342.8,172.9v-16.3h9.8v0.9h-8.9v6.7h8.4v0.9h-8.4v6.9h8.9v0.9H342.8z"/>
	<path id="XMLID_60_" class="st0" d="M367.7,156.6h0.9v16.3h-0.8L357,158.2v14.7h-0.9v-16.3h0.8l10.8,14.7V156.6z"/>
	<path id="XMLID_62_" class="st0" d="M380.3,171.5c-1-1.1-1.6-2.7-1.6-4.8v-10.1h0.9v10.3c0,3.5,1.8,5.3,5.3,5.3
		c1.7,0,3-0.4,3.9-1.3c0.9-0.9,1.3-2.2,1.3-3.9v-10.3h1v10.1c0,2.1-0.5,3.7-1.6,4.8c-1,1.1-2.6,1.6-4.6,1.6
		C382.9,173.1,381.3,172.6,380.3,171.5z"/>
	<path id="XMLID_64_" class="st0" d="M407,156.6h0.9v16.3h-0.8l-10.8-14.7v14.7h-0.9v-16.3h0.8l10.8,14.7V156.6z"/>
	<path id="XMLID_66_" class="st0" d="M419.6,172.6c-1.1-0.3-2-0.8-2.8-1.4l1-2.2c0.8,0.6,1.6,1,2.5,1.3s1.8,0.4,2.8,0.4
		c1.1,0,2-0.2,2.6-0.6c0.6-0.4,0.9-1,0.9-1.7c0-0.6-0.3-1.1-0.9-1.4c-0.6-0.3-1.5-0.6-2.8-0.9c-2.1-0.4-3.5-1-4.5-1.7
		s-1.4-1.7-1.4-3.1c0-1,0.3-1.8,0.8-2.6c0.5-0.8,1.3-1.3,2.2-1.8c1-0.4,2.1-0.6,3.3-0.6c1.1,0,2.2,0.2,3.3,0.5
		c1,0.3,1.9,0.8,2.5,1.4l-1,2.2c-1.5-1.2-3.1-1.7-4.8-1.7c-1.1,0-1.9,0.2-2.5,0.7c-0.6,0.4-0.9,1-0.9,1.8c0,0.6,0.3,1.1,0.8,1.5
		c0.5,0.3,1.5,0.7,2.8,0.9c1.4,0.3,2.5,0.7,3.3,1c0.9,0.4,1.5,0.9,2,1.4s0.7,1.3,0.7,2.2c0,1-0.3,1.8-0.8,2.6
		c-0.5,0.7-1.3,1.3-2.2,1.7c-1,0.4-2.1,0.6-3.5,0.6C421.9,173.1,420.7,173,419.6,172.6z"/>
	<path id="XMLID_68_" class="st0" d="M435.5,172.1c-1.2-0.7-2.1-1.7-2.7-2.9c-0.6-1.3-1-2.8-1-4.5c0-1.7,0.3-3.2,0.9-4.4
		c0.6-1.3,1.5-2.2,2.7-2.9c1.2-0.7,2.6-1,4.1-1c1.6,0,3,0.3,4.1,1c1.2,0.7,2.1,1.6,2.7,2.9c0.6,1.3,0.9,2.7,0.9,4.4
		c0,1.7-0.3,3.2-0.9,4.5c-0.6,1.3-1.5,2.2-2.7,2.9c-1.2,0.7-2.5,1-4.1,1C438.1,173.1,436.7,172.8,435.5,172.1z M443.2,169.2
		c0.8-1,1.3-2.5,1.3-4.5c0-1.9-0.4-3.4-1.3-4.4c-0.8-1-2-1.5-3.5-1.5s-2.7,0.5-3.5,1.5c-0.8,1-1.3,2.5-1.3,4.5
		c0,1.9,0.4,3.4,1.3,4.5c0.8,1,2,1.6,3.5,1.6S442.4,170.2,443.2,169.2z M440.6,155.2h-1.9l2.4-3.6h2.8L440.6,155.2z"/>
	<path id="XMLID_72_" class="st0" d="M450.5,172.9v-16.3h3v13.9h7.6v2.4H450.5z"/>
	<path id="XMLID_74_" class="st0" d="M465.5,172.1c-1.2-0.7-2.1-1.7-2.7-2.9c-0.6-1.3-1-2.8-1-4.5c0-1.7,0.3-3.2,0.9-4.4
		c0.6-1.3,1.5-2.2,2.7-2.9c1.2-0.7,2.6-1,4.1-1c1.6,0,3,0.3,4.1,1c1.2,0.7,2.1,1.6,2.7,2.9c0.6,1.3,0.9,2.7,0.9,4.4
		c0,1.7-0.3,3.2-0.9,4.5c-0.6,1.3-1.5,2.2-2.7,2.9c-1.2,0.7-2.5,1-4.1,1C468.1,173.1,466.7,172.8,465.5,172.1z M473.2,169.2
		c0.8-1,1.3-2.5,1.3-4.5c0-1.9-0.4-3.4-1.3-4.4c-0.8-1-2-1.5-3.5-1.5s-2.7,0.5-3.5,1.5c-0.8,1-1.3,2.5-1.3,4.5
		c0,1.9,0.4,3.4,1.3,4.5c0.8,1,2,1.6,3.5,1.6S472.4,170.2,473.2,169.2z"/>
	<path id="XMLID_77_" class="st0" d="M486.7,156.6h6c2.7,0,4.8,0.7,6.2,2.1s2.2,3.4,2.2,6c0,2.6-0.7,4.6-2.2,6s-3.6,2.1-6.2,2.1h-6
		V156.6z M492.6,170.5c3.8,0,5.6-1.9,5.6-5.8c0-3.8-1.9-5.7-5.6-5.7h-2.9v11.5H492.6z"/>
	<path id="XMLID_80_" class="st0" d="M504.2,172.9v-16.3h10.9v2.3h-8v4.5h7.5v2.3h-7.5v4.8h8v2.3H504.2z"/>
	<path id="XMLID_82_" class="st0" d="M519.7,172.6c-1.1-0.3-2-0.8-2.8-1.4l1-2.2c0.8,0.6,1.6,1,2.5,1.3s1.8,0.4,2.8,0.4
		c1.1,0,2-0.2,2.6-0.6c0.6-0.4,0.9-1,0.9-1.7c0-0.6-0.3-1.1-0.9-1.4c-0.6-0.3-1.5-0.6-2.8-0.9c-2.1-0.4-3.5-1-4.5-1.7
		s-1.4-1.7-1.4-3.1c0-1,0.3-1.8,0.8-2.6c0.5-0.8,1.3-1.3,2.2-1.8c1-0.4,2.1-0.6,3.3-0.6c1.1,0,2.2,0.2,3.3,0.5
		c1,0.3,1.9,0.8,2.5,1.4l-1,2.2c-1.5-1.2-3.1-1.7-4.8-1.7c-1.1,0-1.9,0.2-2.5,0.7c-0.6,0.4-0.9,1-0.9,1.8c0,0.6,0.3,1.1,0.8,1.5
		c0.5,0.3,1.5,0.7,2.8,0.9c1.4,0.3,2.5,0.7,3.3,1c0.9,0.4,1.5,0.9,2,1.4s0.7,1.3,0.7,2.2c0,1-0.3,1.8-0.8,2.6
		c-0.5,0.7-1.3,1.3-2.2,1.7c-1,0.4-2.1,0.6-3.5,0.6C521.9,173.1,520.8,173,519.7,172.6z"/>
	<path id="XMLID_84_" class="st0" d="M544.8,172.9l-1.6-3.8h-8l-1.7,3.8h-3l7.4-16.3h2.4l7.4,16.3H544.8z M536.1,166.8h6l-3-7
		L536.1,166.8z"/>
	<path id="XMLID_87_" class="st0" d="M562.9,172.9h-3.1l-2.1-5.4c-0.2-0.5-0.5-0.9-0.8-1.1c-0.4-0.2-0.9-0.3-1.5-0.3h-3v6.8h-2.9
		v-16.3h7c1.9,0,3.3,0.4,4.2,1.2c1,0.8,1.4,2,1.4,3.5c0,1.1-0.3,2-0.9,2.8c-0.6,0.8-1.4,1.3-2.4,1.6c1,0.2,1.7,0.9,2.1,2
		L562.9,172.9z M556.1,163.8c1.1,0,1.9-0.2,2.5-0.6c0.5-0.4,0.8-1,0.8-1.9c0-0.8-0.3-1.4-0.8-1.8c-0.5-0.4-1.4-0.6-2.5-0.6h-3.7v5
		H556.1z"/>
	<path id="XMLID_90_" class="st0" d="M579,172.9h-3.1l-2.1-5.4c-0.2-0.5-0.5-0.9-0.8-1.1c-0.4-0.2-0.9-0.3-1.5-0.3h-3v6.8h-2.9
		v-16.3h7c1.9,0,3.3,0.4,4.2,1.2c1,0.8,1.4,2,1.4,3.5c0,1.1-0.3,2-0.9,2.8c-0.6,0.8-1.4,1.3-2.4,1.6c1,0.2,1.7,0.9,2.1,2L579,172.9z
		 M572.2,163.8c1.1,0,1.9-0.2,2.5-0.6c0.5-0.4,0.8-1,0.8-1.9c0-0.8-0.3-1.4-0.8-1.8c-0.5-0.4-1.4-0.6-2.5-0.6h-3.7v5H572.2z"/>
	<path id="XMLID_93_" class="st0" d="M584.7,172.1c-1.2-0.7-2.1-1.7-2.7-2.9c-0.6-1.3-1-2.8-1-4.5c0-1.7,0.3-3.2,0.9-4.4
		c0.6-1.3,1.5-2.2,2.7-2.9c1.2-0.7,2.6-1,4.1-1c1.6,0,3,0.3,4.1,1c1.2,0.7,2.1,1.6,2.7,2.9c0.6,1.3,0.9,2.7,0.9,4.4
		c0,1.7-0.3,3.2-0.9,4.5c-0.6,1.3-1.5,2.2-2.7,2.9c-1.2,0.7-2.5,1-4.1,1C587.3,173.1,585.9,172.8,584.7,172.1z M592.4,169.2
		c0.8-1,1.3-2.5,1.3-4.5c0-1.9-0.4-3.4-1.3-4.4c-0.8-1-2-1.5-3.5-1.5s-2.7,0.5-3.5,1.5c-0.8,1-1.3,2.5-1.3,4.5
		c0,1.9,0.4,3.4,1.3,4.5c0.8,1,2,1.6,3.5,1.6S591.5,170.2,592.4,169.2z"/>
	<path id="XMLID_96_" class="st0" d="M599.6,172.9v-16.3h3v13.9h7.6v2.4H599.6z"/>
	<path id="XMLID_98_" class="st0" d="M612.5,172.9v-16.3h3v13.9h7.6v2.4H612.5z"/>
	<path id="XMLID_100_" class="st0" d="M627.6,172.1c-1.2-0.7-2.1-1.7-2.7-2.9c-0.6-1.3-1-2.8-1-4.5c0-1.7,0.3-3.2,0.9-4.4
		c0.6-1.3,1.5-2.2,2.7-2.9c1.2-0.7,2.6-1,4.1-1c1.6,0,3,0.3,4.1,1c1.2,0.7,2.1,1.6,2.7,2.9c0.6,1.3,0.9,2.7,0.9,4.4
		c0,1.7-0.3,3.2-0.9,4.5c-0.6,1.3-1.5,2.2-2.7,2.9c-1.2,0.7-2.5,1-4.1,1C630.1,173.1,628.7,172.8,627.6,172.1z M635.2,169.2
		c0.8-1,1.3-2.5,1.3-4.5c0-1.9-0.4-3.4-1.3-4.4c-0.8-1-2-1.5-3.5-1.5s-2.7,0.5-3.5,1.5c-0.8,1-1.3,2.5-1.3,4.5
		c0,1.9,0.4,3.4,1.3,4.5c0.8,1,2,1.6,3.5,1.6S634.4,170.2,635.2,169.2z"/>
</g>
<g id="XMLID_255_">
	<g id="XMLID_279_">
		<path id="XMLID_298_" class="st0" d="M55.1,34.3h44.2v4.9H80.1v55.9h-5.7V39.2H55.1V34.3z"/>
		<path id="XMLID_296_" class="st0" d="M107.5,95.1V34.3h5.7v55.9h32.6v4.9H107.5z"/>
		<path id="XMLID_293_" class="st0" d="M148.9,95.1l23.9-60.8h6.5l23.3,60.8h-5.9l-7-19.1H162l-7.2,19.1H148.9z M163.9,71.1h23.8
			l-11.9-31.9L163.9,71.1z"/>
		<path id="XMLID_291_" class="st0" d="M229.6,68.2l-17.6,26.8h-6.5l20.9-31.2l-20.1-29.5h6.7l16.6,25.6l16.7-25.6h6.7L233,63.8
			l20.8,31.2h-6.6L229.6,68.2z"/>
		<path id="XMLID_289_" class="st0" d="M305.4,51.9c-2.4-10.4-8.8-14.3-19.2-14.3c-14.7,0-21,12.6-21,26.9c0,13.6,5,27.3,21.5,27.3
			c10.5,0,17-7.1,19.2-16.7h6c-2.7,11.7-10,21.6-26.3,21.6c-18.7,0-26.2-14.8-26.2-32c0-23.2,12.2-32,28.3-32
			c12.5,0,21.6,6.7,23.5,19.2H305.4z"/>
		<path id="XMLID_285_" class="st0" d="M317.7,95.1l23.9-60.8h6.5l23.3,60.8h-5.9l-7-19.1h-27.7l-7.2,19.1H317.7z M332.7,71.1h23.8
			l-11.9-31.9L332.7,71.1z"/>
		<path id="XMLID_283_" class="st0" d="M379.5,95.1V34.3h5.7v55.9h32.6v4.9H379.5z"/>
		<path id="XMLID_280_" class="st0" d="M420.9,95.1l23.9-60.8h6.5l23.3,60.8h-5.9l-7-19.1H434l-7.2,19.1H420.9z M435.9,71.1h23.8
			l-11.9-31.9L435.9,71.1z"/>
	</g>
	<g id="XMLID_256_">
		<path id="XMLID_275_" class="st1" d="M586.2,27.5L554.4,9.1c-5.6-3.2-14.7-3.2-20.3,0l-31.5,18.4c-5.6,3.2-9.8,11.2-9.8,17.6v2.2
			v34.8v2.2c0,6.4,4.2,14.4,9.8,17.6l31.5,18.4c5.6,3.2,14.7,3.2,20.3,0l31.8-18.4c5.6-3.2,10-11.2,10-17.6v-2.2v-1.9V49.2v-1.9
			v-2.2C596.2,38.7,591.7,30.8,586.2,27.5z M560.9,87.4L560.9,87.4L565,83v0L560.9,87.4z M581.9,64.7L581.9,64.7L581.9,64.7
			L581.9,64.7L581.9,64.7z"/>
		<path id="XMLID_262_" class="st2" d="M583.3,30.1L553.7,13c-5.2-3-13.7-3-18.8,0l-29.3,17.1c-5.2,3-9.1,10.4-9.1,16.4v2v32.3v2
			c0,6,3.9,13.4,9.1,16.4l29.3,17.1c5.2,3,13.7,3,18.8,0l29.5-17.1c5.2-3,9.3-10.4,9.3-16.4v-2v-1.8V50.3v-1.8v-2
			C592.6,40.5,588.5,33.1,583.3,30.1z M559.8,85.8L559.8,85.8l3.8-4.1v0L559.8,85.8z M579.3,64.7L579.3,64.7L579.3,64.7L579.3,64.7
			L579.3,64.7z"/>
		<g id="XMLID_257_">
			<path id="XMLID_260_" class="st0" d="M518.7,60.4c-1.9,0-3.9,0.1-6,0.4c-2.1,0.3-4.6,1-7.4,2l3.5-30.4c1.9,0.1,3.8,0.2,5.7,0.3
				c1.9,0.1,3.8,0.1,5.7,0.1c2.8,0,5.7-0.1,8.5-0.3c2.9-0.2,5.8-0.5,8.9-0.8l0.7,0.5l-1.7,7.2c-4.3,0.4-8,0.6-11.1,0.6
				c-2.5,0-4.7-0.1-6.6-0.3c-1.9-0.2-3.8-0.4-5.8-0.6l-2.1,17.6c0.9-0.3,2.3-0.7,4.1-1.1c1.8-0.4,3.9-0.6,6.2-0.6c3,0,5.6,0.5,8,1.6
				c2.4,1.1,4.4,2.5,6,4.3c1.6,1.8,2.9,3.9,3.7,6.3c0.9,2.4,1.3,4.8,1.3,7.4c0,3.3-0.6,6.4-1.7,9.2c-1.1,2.8-2.7,5.2-4.6,7.3
				c-2,2.1-4.3,3.7-7.1,4.8c-2.8,1.1-5.8,1.7-9.1,1.7c-1.5,0-3.1-0.2-4.9-0.6c-1.7-0.4-3.4-1-4.9-1.7c-1.5-0.7-2.8-1.6-3.8-2.5
				c-1-1-1.5-2-1.5-3.1c0-1.1,0.4-2,1.3-2.7c0.9-0.8,1.8-1.1,2.8-1.1c1.4,0,2.6,0.4,3.4,1.3c0.8,0.9,1.6,1.8,2.4,2.8
				c0.8,1,1.6,1.9,2.6,2.8c1,0.9,2.3,1.3,4.1,1.3c1.6,0,3.1-0.4,4.5-1.3c1.4-0.9,2.6-2.1,3.7-3.6c1.1-1.5,1.9-3.4,2.5-5.5
				c0.6-2.1,0.9-4.4,0.9-6.9c0-2.9-0.3-5.4-0.9-7.4c-0.6-2-1.5-3.7-2.6-5c-1.1-1.3-2.4-2.2-3.9-2.8C522,60.7,520.4,60.4,518.7,60.4z
				"/>
			<path id="XMLID_258_" class="st0" d="M568,31.9c2.2,0,4.3,0.3,6.5,0.9c2.1,0.6,4.1,1.5,5.8,2.9c1.7,1.3,3.1,3,4.1,5
				c1.1,2,1.6,4.5,1.6,7.3c0,2-0.3,3.9-0.8,5.5c-0.6,1.6-1.3,3.2-2.3,4.6c-1,1.4-2.1,2.8-3.4,4.2c-1.3,1.3-2.7,2.7-4.2,4.2
				l-10.6,10.2c-0.1,0.1-0.6,0.6-1.5,1.5c-0.9,0.9-1.8,2-2.7,3.2c-1,1.2-1.8,2.6-2.6,4c-0.8,1.4-1.1,2.8-1.1,4h18.8
				c1.9,0,3.4-0.8,4.5-2.3c1.1-1.5,2.1-4.1,3-7.9c0.5-0.1,1.1-0.1,1.7,0c0.6,0.1,1,0.3,1.4,0.5c0,0.8-0.1,1.9-0.2,3.2
				c-0.2,1.3-0.4,2.8-0.6,4.3c-0.2,1.5-0.5,3.1-0.8,4.7c-0.3,1.6-0.6,3.2-0.9,4.5c-0.9,0-1.9,0-2.9-0.1c-0.9,0-1.8,0-2.7,0
				c-1,0-1.9,0-2.7,0h-18.5c-0.9,0-1.8,0-2.8,0c-1,0-1.9,0-2.9,0c-1.1,0.1-2.1,0.1-3.2,0.1c0-1.6,0.1-3.1,0.4-4.6
				c0.3-1.5,0.9-3.1,1.7-4.7c0.9-1.7,2.1-3.5,3.6-5.6c1.6-2,3.6-4.4,6.2-7l7.9-7.8c3.2-3.2,5.4-6.2,6.7-9.1c1.3-2.9,2-6.1,2-9.5
				c0-2.6-0.3-4.7-0.9-6.3c-0.6-1.6-1.3-2.9-2.3-3.9c-0.9-1-1.9-1.6-3-2c-1.1-0.4-2.1-0.6-3-0.6c-2,0-3.6,0.2-4.9,0.6
				c-1.3,0.4-2.4,1-3.3,1.6c-0.9,0.7-1.5,1.4-1.8,2.1c-0.4,0.8-0.5,1.5-0.5,2.1c0,0.4,0.1,0.8,0.3,1.3c0.2,0.5,0.4,0.9,0.5,1.3
				c0.1,0.3,0.2,0.7,0.3,1c0.1,0.3,0.1,0.7,0.1,1.2c0,0.6-0.2,1.2-0.5,1.7c-0.4,0.5-0.8,1-1.3,1.3c-0.5,0.4-1,0.7-1.6,0.9
				c-0.6,0.2-1.1,0.3-1.5,0.3c-1.1,0-2.1-0.4-3-1.2c-0.9-0.8-1.3-1.8-1.3-2.9c0-1.6,0.4-3.2,1.3-5c0.9-1.7,2.2-3.3,3.8-4.8
				c1.6-1.5,3.6-2.7,6-3.7C562.4,32.4,565,31.9,568,31.9z"/>
		</g>
	</g>
</g>
</svg>
