<?xml version="1.0" encoding="utf-8"?>
<!-- Generator: Adobe Illustrator 19.0.0, SVG Export Plug-In . SVG Version: 6.00 Build 0)  -->
<svg version="1.0" id="Layer_1" xmlns="http://www.w3.org/2000/svg" xmlns:xlink="http://www.w3.org/1999/xlink" x="0px" y="0px"
	 viewBox="-762 372.1 395 336.9" style="enable-background:new -762 372.1 395 336.9;" xml:space="preserve">
<style type="text/css">
	.st0{fill:#FFFFFF;}
</style>
<g id="XMLID_408_">
	<path id="XMLID_44_" class="st0" d="M-504,517.5h-97.2c-4.5,0-8.5-2.8-10.1-7c-1.6-4.3-0.4-8.9,3-11.9l106.4-91.9
		c0.7-0.6,1.1-1.5,1.1-2.5v-14.7c0-1.8-1.5-3.3-3.3-3.3H-625c-1.8,0-3.3,1.5-3.3,3.3v124.3c0,2.1-1.7,3.7-3.7,3.7s-3.7-1.7-3.7-3.7
		V389.4c0-5.9,4.8-10.8,10.8-10.8H-504c5.9,0,10.8,4.8,10.8,10.8v14.7c0,3.1-1.4,6.1-3.7,8.1l-106.4,91.9c-1.6,1.4-1.1,3.1-0.9,3.6
		s1,2.1,3.1,2.1h97.2c1.8,0,3.3-1.5,3.3-3.3v-61.6c0-2-1.5-2.8-1.9-3c-0.5-0.2-2.1-0.8-3.5,0.5l-60.6,53.3c-1.6,1.4-3.9,1.2-5.3-0.3
		c-1.4-1.6-1.2-3.9,0.3-5.3l60.6-53.3c3.2-2.8,7.6-3.5,11.5-1.7s6.3,5.5,6.3,9.8v61.6C-493.3,512.6-498.1,517.5-504,517.5z"/>
	<g id="XMLID_437_">
		<path id="XMLID_448_" class="st0" d="M-751.6,645.6v-70.5h20.4c9.4,0,17.3,3.1,23.7,9.4c6.4,6.2,9.6,14.3,9.6,24.2
			s-3,18.5-9.1,25.9c-6.1,7.3-13.7,11-22.9,11H-751.6L-751.6,645.6z M-740.5,634.6h10.2c4.8,0,9.5-2.3,14.3-6.9
			c4.8-4.6,7.2-10.5,7.2-17.6c0-7.2-2.4-12.9-7.2-17.3c-4.8-4.4-9.7-6.6-14.9-6.6h-9.6V634.6z"/>
		<path id="XMLID_446_" class="st0" d="M-676.3,645.6v-70.5h36.3v11h-25.3v21.8h23.7v11h-23.7v15.7h25.3v11H-676.3z"/>
		<path id="XMLID_444_" class="st0" d="M-618.3,632.1l8.5-5c1.5,2,3.2,3.8,5.2,5.2c2,1.5,4.5,2.2,7.6,2.2c3,0,5.4-0.6,7.2-1.8
			c1.8-1.2,2.7-3.4,2.7-6.6s-2.8-7-8.3-11.3c-5.6-4.3-10-8-13.3-11c-3.3-3-5-7.2-5-12.4c0-5.2,1.9-9.3,5.8-12.1
			c3.9-2.8,7.9-4.3,12.1-4.3c4.2,0,7.8,0.7,10.6,2.2c2.8,1.5,5.2,3.4,7,5.8l-8.5,6.3c-2-1.5-3.6-2.4-4.7-2.8s-2.4-0.6-4-0.6
			s-3.2,0.5-4.8,1.5c-1.7,1-2.5,2.6-2.5,4.7c0,2.1,2.1,4.8,6.3,8.1c4.2,3.3,8.7,7.1,13.3,11.4c4.6,4.3,7,9.3,7,15.1
			c0,5.8-2,10.3-6,13.7s-8.9,5-14.7,5c-5.8,0-10.5-1.6-14.2-4.8C-614.6,637.6-617.1,634.7-618.3,632.1z"/>
		<path id="XMLID_442_" class="st0" d="M-554.1,645.6v-70.5h11v70.5H-554.1z"/>
		<path id="XMLID_440_" class="st0" d="M-455.4,610.4c0,9.7-2.7,18-8,24.9s-12.9,10.3-22.6,10.3s-18.1-3.5-25.1-10.4
			c-6.9-6.9-10.4-15.2-10.4-24.8s3.5-17.9,10.4-24.9c6.9-6.9,15.2-10.4,24.9-10.4s17.9,3.5,24.8,10.4l-7.8,7.8
			c-4.8-4.8-10.5-7.2-17.1-7.2s-12.3,2.4-17.1,7.2c-4.8,4.8-7.2,10.5-7.2,17.1s2.4,12.3,7.2,17.1c4.8,4.8,10.5,7.2,17.1,7.2
			s11.6-2.4,14.9-7.2c2-2.8,3.4-5.7,4.1-8.8h-16v-11h27.8v2.7H-455.4z"/>
		<path id="XMLID_438_" class="st0" d="M-429.4,645.6v-70.5h2.8l37.2,43.5v-43.5h11.3v70.5h-4.1l-36.1-43.5v43.5H-429.4z"/>
	</g>
	<g id="XMLID_409_">
		<path id="XMLID_433_" class="st0" d="M-755,702.4l12.5-29.7h0.9l12.5,29.7h-3l-4.9-11.5h-10.3l-4.9,11.5H-755z M-742,678.1
			l-4.2,10.1h8.2L-742,678.1z"/>
		<path id="XMLID_430_" class="st0" d="M-712.4,702.4v-28.3h8c2.2,0,4.2,0.8,5.8,2.4c1.7,1.6,2.5,3.5,2.5,5.8c0,2.3-0.6,4.1-1.9,5.5
			c-1.3,1.4-3,2.4-5.1,2.9l8.7,11.8h-4l-8.5-11.5h-2.7v11.5L-712.4,702.4L-712.4,702.4z M-709.6,688.1h2.9c2.4,0,4.4-0.5,5.8-1.4
			c1.4-0.9,2.1-2.3,2.1-4c0-1.7-0.5-3.2-1.6-4.3s-2.5-1.6-4.3-1.6h-4.9V688.1z"/>
		<path id="XMLID_427_" class="st0" d="M-651.3,688.3c0,3.9-1.4,7.2-4.2,10l3,1.4l-1.3,2.8l-4.2-2.2c-1.9,1.5-4.4,2.2-7.4,2.2
			c-3.9,0-7.2-1.4-10-4.2c-2.8-2.8-4.2-6.1-4.2-10s1.4-7.2,4.2-10c2.8-2.8,6.1-4.2,10-4.2s7.2,1.4,10,4.2
			C-652.8,681.1-651.3,684.4-651.3,688.3z M-654.1,688.3c0-3.1-1.1-5.8-3.4-8c-2.3-2.3-4.9-3.4-8-3.4s-5.8,1.1-8,3.4
			c-2.3,2.3-3.4,4.9-3.4,8s1.2,5.8,3.7,8c2.4,2.3,5.1,3.4,8,3.4c1.7,0,3-0.4,4-1.1l-2.3-1.2l1.3-2.4l3.8,2l0.9-0.6
			C-655.2,694-654.1,691.4-654.1,688.3z"/>
		<path id="XMLID_425_" class="st0" d="M-634.3,674.1h2.8v18c0,2.1,0.7,3.8,2.2,5.3s3.2,2.2,5.3,2.2c2,0,3.8-0.7,5.3-2.2
			s2.2-3.2,2.2-5.3v-18h2.8v18c0,2.8-1,5.2-3,7.3c-2,2-4.4,3-7.2,3c-2.8,0-5.2-1-7.2-3s-3-4.4-3-7.3v-18H-634.3z"/>
		<path id="XMLID_423_" class="st0" d="M-595.8,702.4v-28.3h2.8v28.3H-595.8z"/>
		<path id="XMLID_421_" class="st0" d="M-567.8,702.4v-25.6h-8.2V674h19.2v2.8h-8.2v25.6H-567.8z"/>
		<path id="XMLID_419_" class="st0" d="M-539.9,702.4v-28.3h14.6v2.8h-11.8v11.3h11.8v2.8h-11.8v8.7h11.8v2.8L-539.9,702.4
			L-539.9,702.4z"/>
		<path id="XMLID_417_" class="st0" d="M-486.1,676.5l-1.6,2.2c-1.8-1.3-3.9-1.9-6.4-1.9c-3.1,0-5.8,1.1-8,3.4
			c-2.3,2.3-3.4,4.9-3.4,8s1.2,5.8,3.7,8c2.4,2.3,5.1,3.4,8,3.4c2.3,0,4.4-0.6,6.1-1.9l1.6,2.2c-2.4,1.6-5,2.4-8,2.4
			c-3.9,0-7.2-1.4-10-4.2c-2.8-2.8-4.2-6.1-4.2-10s1.4-7.2,4.2-10c2.8-2.8,6.1-4.2,10-4.2C-491.2,674.1-488.5,674.9-486.1,676.5z"/>
		<path id="XMLID_415_" class="st0" d="M-462.1,702.4v-25.6h-8.2V674h19.2v2.8h-8.2v25.6H-462.1z"/>
		<path id="XMLID_412_" class="st0" d="M-406.9,688.3c0,3.9-1.4,7.2-4.2,10c-2.8,2.8-6.1,4.2-10,4.2s-7.2-1.4-10-4.2
			c-2.8-2.8-4.2-6.1-4.2-10s1.4-7.2,4.2-10c2.8-2.8,6.1-4.2,10-4.2s7.2,1.4,10,4.2C-408.3,681.1-406.9,684.4-406.9,688.3z
			 M-409.7,688.3c0-3.1-1.1-5.8-3.4-8c-2.3-2.3-4.9-3.4-8-3.4s-5.8,1.1-8,3.4c-2.3,2.3-3.4,4.9-3.4,8s1.2,5.8,3.7,8
			c2.4,2.3,5.1,3.4,8,3.4s5.5-1.1,7.7-3.4C-410.8,694-409.7,691.4-409.7,688.3z"/>
		<path id="XMLID_410_" class="st0" d="M-391,697l2.3-1.2c0.4,0.9,1.2,1.8,2.4,2.6c1.1,0.8,2.4,1.3,3.8,1.3s2.7-0.4,3.9-1.2
			c1.2-0.8,1.8-2,1.8-3.5s-0.9-3-2.6-4.5c-1.8-1.5-3.8-3-6.2-4.6c-2.4-1.6-3.5-3.4-3.5-5.4s0.8-3.5,2.3-4.6c1.6-1.1,3.2-1.7,4.9-1.7
			c1.7,0,3.1,0.3,4.3,0.9c1.1,0.6,2.1,1.4,2.8,2.3l-1.8,1.7c-0.7-0.7-1.4-1.3-2.3-1.6c-0.8-0.3-1.9-0.5-3-0.5s-2.2,0.3-3.1,0.9
			c-0.9,0.6-1.3,1.5-1.3,2.7c0,1.1,1,2.3,2.9,3.6c1.9,1.3,4,2.8,6.2,4.6c2.2,1.8,3.3,3.9,3.3,6.2c0,2.3-0.8,4.2-2.4,5.5
			c-1.6,1.3-3.6,2-5.9,2s-4.2-0.6-5.7-1.9C-389.5,699.2-390.5,698-391,697z"/>
	</g>
</g>
</svg>
