<?xml version="1.0" encoding="utf-8"?>
<!-- Generator: Adobe Illustrator 19.0.0, SVG Export Plug-In . SVG Version: 6.00 Build 0)  -->
<svg version="1.0" id="Layer_1" xmlns="http://www.w3.org/2000/svg" xmlns:xlink="http://www.w3.org/1999/xlink" x="0px" y="0px"
	 viewBox="0 0 25.3 25.3" style="enable-background:new 0 0 25.3 25.3;" xml:space="preserve">
<style type="text/css">
	.st0{fill:#FFFFFF;}
</style>
<g id="XMLID_2_">
	<path id="XMLID_4_" class="st0" d="M21,17l-3.7-3.7c-0.3-0.3-0.9-0.3-1.2,0l-1,1c-0.1,0.1-0.3,0.1-0.4,0c-1.3-1.2-2.6-2.4-3.7-3.8
		c-0.1-0.1-0.1-0.3,0-0.4l1-1c0.2-0.2,0.2-0.4,0.2-0.6c0-0.2-0.1-0.4-0.2-0.6L8.3,4.3C8,4,7.4,4,7.1,4.3L4.3,7.1
		C4.1,7.4,4,7.8,4.2,8.1c3,5.5,7.5,10,13,13c0.1,0.1,0.2,0.1,0.4,0.1c0.2,0,0.4-0.1,0.6-0.2l2.8-2.8c0.2-0.2,0.2-0.4,0.2-0.6
		C21.2,17.4,21.1,17.2,21,17z M20.6,17.8l-2.8,2.8c-0.1,0.1-0.2,0.1-0.3,0.1C12,17.7,7.6,13.3,4.7,7.9c-0.1-0.1,0-0.2,0.1-0.3
		l2.8-2.8c0.1-0.1,0.1-0.1,0.2-0.1s0.1,0,0.2,0.1l3.7,3.7c0.1,0.1,0.1,0.1,0.1,0.2c0,0.1,0,0.1-0.1,0.2l-1,1
		c-0.3,0.3-0.3,0.8-0.1,1.1c1.2,1.4,2.4,2.6,3.8,3.8c0.3,0.3,0.8,0.2,1.1-0.1l1-1c0.1-0.1,0.3-0.1,0.4,0l3.7,3.7
		c0.1,0.1,0.1,0.1,0.1,0.2S20.6,17.8,20.6,17.8z"/>
	<path id="XMLID_20_" class="st0" d="M24.8,24.8H0.5V0.5h24.2V24.8z M0.8,24.5h23.8V0.8H0.8V24.5z"/>
</g>
</svg>
